<svg xmlns="http://www.w3.org/2000/svg" xmlns:xlink="http://www.w3.org/1999/xlink" width="72" height="72">
  <path fill="none" stroke="#A0A0A0" stroke-width=".208" stroke-miterlimit="10" d="M28.443 57.956l16.167-3.509"/>
  <path fill="#A0A0A0" d="M28.396 58.491c.669 0 .671-1.04 0-1.04-.67 0-.671 1.04 0 1.04M44.599 54.931c.669 0 .67-1.04 0-1.04s-.671 1.04 0 1.04"/>
  <path fill="#231F20" d="M26.6 58.317c.669 0 .671-1.041 0-1.041-.67 0-.671 1.041 0 1.041"/>
  <path fill="#D6D6D6" d="M28.36 58.384c.67 0 .671-1.041 0-1.041-.669 0-.67 1.041 0 1.041M21.762 55.604c.67 0 .671-1.041 0-1.041-.67-.001-.671 1.041 0 1.041M30.803 59.543c.402 0 .402-.625 0-.625s-.402.625 0 .625M36.033 60.301c.402 0 .402-.624 0-.624s-.403.624 0 .624"/>
  <path fill="#231F20" d="M36.933 59.13c1.34 0 1.342-2.082 0-2.082-1.339 0-1.341 2.082 0 2.082"/>
  <path fill="none" stroke="#231F20" stroke-width=".25" stroke-miterlimit="10" d="M26.589 57.763l10.311.299"/>
  <path fill="#231F20" d="M21.762 55.604c.67 0 .671-1.041 0-1.041-.67-.001-.671 1.041 0 1.041"/>
  <path fill="none" stroke="#A0A0A0" stroke-width=".208" stroke-miterlimit="10" d="M16.048 48.181l4.974-3.732M21.022 44.449l.552 8.193M21.574 52.642l4.69-10.773M26.264 41.869l12.752 5.095M39.016 46.964l-17.442 5.678M39.016 46.964L28.443 57.956M44.61 54.447l-5.594-7.483M39.016 46.964l-4.381-9.336M34.635 37.628l-8.372 4.241M26.264 41.869l-4.32-6.378M21.943 35.491l-.921 8.958M21.022 44.449l5.242-2.58"/>
  <path fill="#A0A0A0" d="M43.968 35.275c.689 0 .69-1.071 0-1.071-.689 0-.69 1.071 0 1.071M55.69 40.73c.689 0 .69-1.07 0-1.07-.689 0-.69 1.07 0 1.07M42.536 4.488c.689 0 .69-1.071 0-1.071-.689 0-.69 1.071 0 1.071M34.984 4.534c.689 0 .69-1.071 0-1.071-.689 0-.69 1.071 0 1.071M26.156 20.636c.689 0 .69-1.071 0-1.071-.689 0-.69 1.071 0 1.071M48.3 7.754c.689 0 .69-1.071 0-1.071-.689 0-.69 1.071 0 1.071M55.767 10.041c.689 0 .69-1.071 0-1.071-.689 0-.69 1.071 0 1.071M47.141 20.654c.689 0 .69-1.071 0-1.071-.689 0-.69 1.071 0 1.071M60.92 16.154c.828 0 .829-1.287 0-1.287-.828 0-.829 1.287 0 1.287M63.281 21.079c.689 0 .69-1.071 0-1.071-.689 0-.69 1.071 0 1.071M57.017 21.956c.689 0 .69-1.071 0-1.071-.689 0-.69 1.071 0 1.071M49.41 29.959c.689 0 .69-1.071 0-1.071-.689 0-.69 1.071 0 1.071M46.743 30.517c.689 0 .69-1.071 0-1.071-.689-.001-.69 1.071 0 1.071M39.156 25.983c.689 0 .69-1.071 0-1.071-.689.001-.69 1.071 0 1.071M28.305 24.998c.689 0 .69-1.071 0-1.071-.689 0-.69 1.071 0 1.071M21.104 26.859c.689 0 .69-1.071 0-1.071-.689 0-.69 1.071 0 1.071M47.894 46.255c.689 0 .69-1.071 0-1.071-.689 0-.69 1.071 0 1.071M50.429 34.126c.689 0 .69-1.07 0-1.07-.689 0-.69 1.07 0 1.07M56.651 30.662c.689 0 .69-1.071 0-1.071-.689 0-.69 1.071 0 1.071M38.934 47.98c1.339 0 1.341-2.081 0-2.081-1.339 0-1.343 2.081 0 2.081M26.264 42.91c1.339 0 1.341-2.082 0-2.082-1.34 0-1.342 2.082 0 2.082M34.532 38.706c1.34 0 1.342-2.081 0-2.081-1.339 0-1.341 2.081 0 2.081M29.227 33.652c1.34 0 1.342-2.082 0-2.082-1.339 0-1.341 2.082 0 2.082M33.445 18.424c1.339 0 1.342-2.082 0-2.082-1.339 0-1.341 2.082 0 2.082M45.128 19.05c1.34 0 1.342-2.082 0-2.082-1.338 0-1.34 2.082 0 2.082M47.153 40.644c1.339 0 1.342-2.082 0-2.082-1.339 0-1.342 2.082 0 2.082"/>
  <path fill="none" stroke="#A0A0A0" stroke-width=".208" stroke-miterlimit="10" d="M44.61 54.447l3.284-8.727M47.894 45.72l-8.877 1.244M47.894 45.72l-.706-6.007M39.348 46.812l7.84-7.099M47.188 39.713l8.501.482M47.894 45.72l7.795-5.525M21.942 35.485l12.693 2.143M34.635 37.628l-5.409-5.017M29.227 32.611l-7.286 2.874M34.635 37.628l12.552 2.085M21.942 35.485l-.838-9.162M21.104 26.323l8.123 6.288M21.104 26.323l7.202-1.861M28.305 24.462l.921 8.149M47.188 39.713l3.242-6.122M50.429 33.591l5.261 6.603M50.429 33.591l6.222-3.464M56.651 30.127l-.961 10.068M34.635 37.628l4.521-12.18M29.227 32.611l9.93-7.163M34.635 37.628l9.333-2.888M43.968 34.74l3.22 4.973M34.635 37.628l12.108-7.647M46.743 29.98l-2.775 4.76M46.743 29.98l.444 9.733M46.743 29.98l3.686 3.611"/>
  <path fill="none" stroke="#A0A0A0" stroke-width=".214" stroke-miterlimit="10" d="M46.743 29.98l.368-9.959M47.111 20.02l3.318 13.571M28.305 24.462l10.851.986M39.156 25.448l-5.725-8.11"/>
  <path fill="none" stroke="#A0A0A0" stroke-width=".25" stroke-miterlimit="10" d="M33.431 17.338l-5.126 7.125"/>
  <path fill="none" stroke="#A0A0A0" stroke-width=".214" stroke-miterlimit="10" d="M21.104 26.323l5.052-6.223M26.156 20.1l2.149 4.362M33.431 17.338l11.697.671M39.342 25.265l5.787-7.256M47.111 20.02l-1.982-2.011M45.128 18.009l10.64-8.503M55.767 9.505l-8.593 10.72M49.41 29.424l7.64-7.901M57.049 21.523l-.398 8.604M56.651 30.127l6.708-9.608M63.36 20.519L55.767 9.505M55.767 9.505l1.266 12.369M57.049 21.523l6.311-1.004M33.431 17.338l1.553-13.339M33.431 17.338l9.104-13.385M33.431 17.338L48.3 7.218M48.3 7.218l-5.764-3.265M45.128 18.009l3.171-10.791"/>
  <path fill="none" stroke="#D6D6D6" stroke-width=".208" stroke-miterlimit="10" d="M9.125 34.719c4.937 21.759 22.146 28.43 37.281 23.992M9.496 36.237c7.079 19.961 22.808 26.837 37.876 22.175M9.708 36.603c8.576 19.336 24.408 25.911 39.476 21.249"/>
  <path fill="#A0A0A0" d="M16.586 26.146c.67 0 .671-1.041 0-1.041-.669 0-.671 1.041 0 1.041M16.586 23.732c.67 0 .671-1.041 0-1.041-.669 0-.671 1.041 0 1.041M14.076 23.732c.67 0 .671-1.041 0-1.041-.669 0-.671 1.041 0 1.041M15.192 24.983c.669 0 .671-1.041 0-1.041-.67 0-.671 1.041 0 1.041"/>
  <path fill="#D6D6D6" d="M40.438 51.931c.669 0 .671-1.041 0-1.041-.669 0-.67 1.041 0 1.041M54.328 48.666c.669 0 .67-1.041 0-1.041s-.671 1.041 0 1.041M58.88 31.402c.805 0 .806-1.25 0-1.25-.804 0-.806 1.25 0 1.25"/>
  <defs>
    <path id="a" d="M32.318 48.311h1.005v1.041h-1.005z"/>
  </defs>
  <clipPath id="b">
    <use xlink:href="#a" overflow="visible"/>
  </clipPath>
  <path clip-path="url(#b)" fill="#231F20" d="M32.82 49.352c.67 0 .671-1.041 0-1.041-.669 0-.67 1.041 0 1.041"/>
  <defs>
    <path id="c" d="M28.457 44.833h1.006v1.041h-1.006z"/>
  </defs>
  <clipPath id="d">
    <use xlink:href="#c" overflow="visible"/>
  </clipPath>
  <path clip-path="url(#d)" fill="#231F20" d="M28.96 45.874c.67 0 .671-1.041 0-1.041-.67 0-.671 1.041 0 1.041"/>
  <defs>
    <path id="e" d="M40.351 35.583h1.005v1.041h-1.005z"/>
  </defs>
  <clipPath id="f">
    <use xlink:href="#e" overflow="visible"/>
  </clipPath>
  <path clip-path="url(#f)" fill="#231F20" d="M40.853 36.624c.67 0 .671-1.041 0-1.041-.669 0-.67 1.041 0 1.041"/>
  <defs>
    <path id="g" d="M17.63 27.443h1.005v1.039H17.63z"/>
  </defs>
  <clipPath id="h">
    <use xlink:href="#g" overflow="visible"/>
  </clipPath>
  <path clip-path="url(#h)" fill="#231F20" d="M18.133 28.483c.669 0 .67-1.041 0-1.041s-.671 1.041 0 1.041"/>
  <defs>
    <path id="i" d="M29.11 24.29h1.005v1.041H29.11z"/>
  </defs>
  <clipPath id="j">
    <use xlink:href="#i" overflow="visible"/>
  </clipPath>
  <path clip-path="url(#j)" fill="#231F20" d="M29.613 25.331c.67 0 .671-1.041 0-1.041-.67 0-.671 1.041 0 1.041"/>
  <defs>
    <path id="k" d="M23.729 35.008h1.005v1.041h-1.005z"/>
  </defs>
  <clipPath id="l">
    <use xlink:href="#k" overflow="visible"/>
  </clipPath>
  <path clip-path="url(#l)" fill="#231F20" d="M24.232 36.049c.669 0 .671-1.041 0-1.041-.67 0-.671 1.041 0 1.041"/>
  <defs>
    <path id="m" d="M26.14 29.876h1.006v1.041H26.14z"/>
  </defs>
  <clipPath id="n">
    <use xlink:href="#m" overflow="visible"/>
  </clipPath>
  <path clip-path="url(#n)" fill="#231F20" d="M26.643 30.916c.67 0 .671-1.04 0-1.04-.67 0-.671 1.04 0 1.04"/>
  <defs>
    <path id="o" d="M28.712 18.038h1.005v1.04h-1.005z"/>
  </defs>
  <clipPath id="p">
    <use xlink:href="#o" overflow="visible"/>
  </clipPath>
  <path clip-path="url(#p)" fill="#231F20" d="M29.215 19.078c.669 0 .671-1.041 0-1.041-.67 0-.671 1.041 0 1.041"/>
  <defs>
    <path id="q" d="M16.192 17.192h1.005v1.041h-1.005z"/>
  </defs>
  <clipPath id="r">
    <use xlink:href="#q" overflow="visible"/>
  </clipPath>
  <path clip-path="url(#r)" fill="#231F20" d="M16.695 18.232c.67 0 .671-1.041 0-1.041-.669 0-.671 1.041 0 1.041"/>
  <defs>
    <path id="s" d="M20.833 15.691h1.005v1.04h-1.005z"/>
  </defs>
  <clipPath id="t">
    <use xlink:href="#s" overflow="visible"/>
  </clipPath>
  <path clip-path="url(#t)" fill="#231F20" d="M21.336 16.731c.67 0 .671-1.041 0-1.041-.669 0-.671 1.041 0 1.041"/>
  <defs>
    <path id="u" d="M25.771 11.43h1.005v1.041h-1.005z"/>
  </defs>
  <clipPath id="v">
    <use xlink:href="#u" overflow="visible"/>
  </clipPath>
  <path clip-path="url(#v)" fill="#231F20" d="M26.274 12.471c.669 0 .671-1.041 0-1.041-.67 0-.671 1.041 0 1.041"/>
  <defs>
    <path id="w" d="M23.387 26.909h1.005v1.042h-1.005z"/>
  </defs>
  <clipPath id="x">
    <use xlink:href="#w" overflow="visible"/>
  </clipPath>
  <path clip-path="url(#x)" fill="#231F20" d="M23.889 27.949c.67 0 .671-1.041 0-1.041-.669.001-.671 1.041 0 1.041"/>
  <path fill="#D6D6D6" d="M9.708 37.123c.67 0 .671-1.041 0-1.041-.67 0-.671 1.041 0 1.041"/>
  <defs>
    <path id="y" d="M18.754 41.249h1.005v1.041h-1.005z"/>
  </defs>
  <clipPath id="z">
    <use xlink:href="#y" overflow="visible"/>
  </clipPath>
  <path clip-path="url(#z)" fill="#231F20" d="M19.257 42.29c.669 0 .671-1.041 0-1.041-.67 0-.671 1.041 0 1.041"/>
  <defs>
    <path id="A" d="M15.107 42.343h1.005v1.04h-1.005z"/>
  </defs>
  <clipPath id="B">
    <use xlink:href="#A" overflow="visible"/>
  </clipPath>
  <path clip-path="url(#B)" fill="#231F20" d="M15.61 43.384c.67 0 .671-1.041 0-1.041-.669 0-.67 1.041 0 1.041"/>
  <defs>
    <path id="C" d="M13.444 39.876h1.005v1.041h-1.005z"/>
  </defs>
  <clipPath id="D">
    <use xlink:href="#C" overflow="visible"/>
  </clipPath>
  <path clip-path="url(#D)" fill="#231F20" d="M13.947 40.917c.67 0 .671-1.041 0-1.041-.67 0-.671 1.041 0 1.041"/>
  <defs>
    <path id="E" d="M22.139 36.93h1.005v1.041h-1.005z"/>
  </defs>
  <clipPath id="F">
    <use xlink:href="#E" overflow="visible"/>
  </clipPath>
  <path clip-path="url(#F)" fill="#231F20" d="M22.641 37.971c.67 0 .671-1.041 0-1.041-.669 0-.67 1.041 0 1.041"/>
  <defs>
    <path id="G" d="M59.577 28.931h1.005v1.041h-1.005z"/>
  </defs>
  <clipPath id="H">
    <use xlink:href="#G" overflow="visible"/>
  </clipPath>
  <path clip-path="url(#H)" fill="#231F20" d="M60.08 29.972c.669 0 .67-1.041 0-1.041s-.671 1.041 0 1.041"/>
  <defs>
    <path id="I" d="M23.652 43.581h1.005v1.041h-1.005z"/>
  </defs>
  <clipPath id="J">
    <use xlink:href="#I" overflow="visible"/>
  </clipPath>
  <path clip-path="url(#J)" fill="#231F20" d="M24.155 44.622c.67 0 .671-1.041 0-1.041-.67 0-.671 1.041 0 1.041"/>
  <defs>
    <path id="K" d="M28.409 36.454h1.005v1.041h-1.005z"/>
  </defs>
  <clipPath id="L">
    <use xlink:href="#K" overflow="visible"/>
  </clipPath>
  <path clip-path="url(#L)" fill="#231F20" d="M28.912 37.495c.67 0 .671-1.041 0-1.041-.669 0-.671 1.041 0 1.041"/>
  <defs>
    <path id="M" d="M38.513 46.444h1.005v1.04h-1.005z"/>
  </defs>
  <clipPath id="N">
    <use xlink:href="#M" overflow="visible"/>
  </clipPath>
  <path clip-path="url(#N)" fill="#231F20" d="M39.016 47.484c.67 0 .671-1.041 0-1.041-.67 0-.671 1.041 0 1.041"/>
  <defs>
    <path id="O" d="M32.608 43.306h1.005v1.041h-1.005z"/>
  </defs>
  <clipPath id="P">
    <use xlink:href="#O" overflow="visible"/>
  </clipPath>
  <path clip-path="url(#P)" fill="#231F20" d="M33.11 44.347c.67 0 .671-1.041 0-1.041-.669 0-.67 1.041 0 1.041"/>
  <path fill="#D6D6D6" d="M11.149 41.782c.669 0 .67-1.041 0-1.041s-.67 1.041 0 1.041M14.076 46.229c.67 0 .671-1.041 0-1.041-.669 0-.671 1.041 0 1.041"/>
  <defs>
    <path id="Q" d="M18.75 32.163h1.006v1.04H18.75z"/>
  </defs>
  <clipPath id="R">
    <use xlink:href="#Q" overflow="visible"/>
  </clipPath>
  <path clip-path="url(#R)" fill="#231F20" d="M19.252 33.203c.67 0 .671-1.041 0-1.041-.669 0-.67 1.041 0 1.041"/>
  <path fill="#D6D6D6" d="M17.115 51.587c.67 0 .671-1.041 0-1.041-.669 0-.671 1.041 0 1.041M20.431 53.535c.67 0 .671-1.041 0-1.041-.669 0-.671 1.041 0 1.041"/>
  <defs>
    <path id="S" d="M13.275 36.632h1.005v1.041h-1.005z"/>
  </defs>
  <clipPath id="T">
    <use xlink:href="#S" overflow="visible"/>
  </clipPath>
  <path clip-path="url(#T)" fill="#231F20" d="M13.778 37.673c.669 0 .671-1.041 0-1.041-.67 0-.671 1.041 0 1.041"/>
  <path fill="#A0A0A0" d="M21.942 36.006c.67 0 .671-1.041 0-1.041-.669 0-.671 1.041 0 1.041M15.893 48.752c.669 0 .67-1.04 0-1.04s-.671 1.04 0 1.04M21.574 53.162c.669 0 .671-1.041 0-1.041-.67 0-.671 1.041 0 1.041M34.635 38.147c.67 0 .671-1.04 0-1.04-.67 0-.671 1.04 0 1.04M20.976 44.985c.669 0 .671-1.041 0-1.041-.67 0-.671 1.041 0 1.041"/>
  <path fill="none" stroke="#D6D6D6" stroke-width=".208" stroke-miterlimit="10" d="M11.149 41.262l11.493-3.813M22.641 37.45l-5.526 13.616M11.149 41.262l13.006 2.84M24.169 44.147l-7.054 6.919M17.115 51.066l11.845-5.712M28.96 45.354l-7.199 9.728M21.762 55.083l11.059-6.252M32.82 48.831L30.806 59.24M30.803 59.23l9.629-7.834M40.478 51.246l-4.501 8.831"/>
  <path fill="none" stroke="#D6D6D6" stroke-width=".25" stroke-miterlimit="10" d="M11.916 41.025l1.885-4.008M13.801 37.017l.275 8.691M14.076 45.708l8.735 1.771M22.812 47.479l5.521 10.295M28.289 57.787l-7.857-4.771"/>
  <path fill="none" stroke="#D6D6D6" stroke-width=".208" stroke-miterlimit="10" d="M13.909 40.408l5.355-7.771M19.264 32.638L15.61 42.863M15.61 42.863l3.647-1.093M19.237 41.704l1.195 11.314M20.425 52.997l3.738-8.87M24.169 44.147l-1.528-6.697"/>
  <path fill="#D6D6D6" d="M22.744 48.021c.67 0 .671-1.041 0-1.041-.669 0-.671 1.041 0 1.041"/>
  <path fill="none" stroke="#D6D6D6" stroke-width=".208" stroke-miterlimit="10" d="M49.183 57.852l-8.772-6.531M40.411 51.321l-1.412-4.402M38.999 46.919l-6.179 1.912M32.82 48.831l.29-5.005M40.853 36.104l-1.854 10.815M40.853 36.104l-16.689 8.023M40.738 36.14l-18.184 1.325M19.252 32.683l-1.119-4.72M33.141 43.816l-4.229-6.841M66.596 28.589C61.651 6.802 44.44.128 29.305 4.566M66.226 27.07C59.138 7.08 43.408.201 28.339 4.863M66.014 26.705C57.429 7.338 41.597.762 26.529 5.425"/>
  <defs>
    <path id="U" d="M34.698 11.331h1.206v1.248h-1.206z"/>
  </defs>
  <clipPath id="V">
    <use xlink:href="#U" overflow="visible"/>
  </clipPath>
  <path clip-path="url(#V)" fill="#231F20" d="M35.301 12.579c.804 0 .805-1.249 0-1.249-.803 0-.804 1.249 0 1.249"/>
  <defs>
    <path id="W" d="M42.39 13.93h1.006v1.041H42.39z"/>
  </defs>
  <clipPath id="X">
    <use xlink:href="#W" overflow="visible"/>
  </clipPath>
  <path clip-path="url(#X)" fill="#231F20" d="M42.893 14.971c.669 0 .671-1.041 0-1.041-.67 0-.671 1.041 0 1.041"/>
  <defs>
    <path id="Y" d="M46.253 17.415h1.005v1.041h-1.005z"/>
  </defs>
  <clipPath id="Z">
    <use xlink:href="#Y" overflow="visible"/>
  </clipPath>
  <path clip-path="url(#Z)" fill="#231F20" d="M46.756 18.456c.669 0 .67-1.041 0-1.041s-.671 1.041 0 1.041"/>
  <defs>
    <path id="aa" d="M34.491 26.634h1.006v1.04h-1.006z"/>
  </defs>
  <clipPath id="ab">
    <use xlink:href="#aa" overflow="visible"/>
  </clipPath>
  <path clip-path="url(#ab)" fill="#231F20" d="M34.994 27.674c.67 0 .671-1.041 0-1.041-.67 0-.671 1.041 0 1.041"/>
  <path fill="#D6D6D6" d="M57.588 35.865c.67 0 .671-1.041 0-1.041-.669 0-.67 1.041 0 1.041M60.92 16.261c.965 0 .966-1.5 0-1.5-.965 0-.966 1.5 0 1.5"/>
  <defs>
    <path id="ac" d="M52.762 17.453h1.005v1.041h-1.005z"/>
  </defs>
  <clipPath id="ad">
    <use xlink:href="#ac" overflow="visible"/>
  </clipPath>
  <path clip-path="url(#ad)" fill="#231F20" d="M53.265 18.494c.669 0 .671-1.041 0-1.041-.67 0-.671 1.041 0 1.041"/>
  <defs>
    <path id="ae" d="M55.959 21.009h1.005v1.041h-1.005z"/>
  </defs>
  <clipPath id="af">
    <use xlink:href="#ae" overflow="visible"/>
  </clipPath>
  <path clip-path="url(#af)" fill="#231F20" d="M56.462 22.05c.67 0 .671-1.041 0-1.041-.669 0-.671 1.041 0 1.041"/>
  <defs>
    <path id="ag" d="M59.605 19.916h1.006v1.041h-1.006z"/>
  </defs>
  <clipPath id="ah">
    <use xlink:href="#ag" overflow="visible"/>
  </clipPath>
  <path clip-path="url(#ah)" fill="#231F20" d="M60.108 20.957c.669 0 .67-1.041 0-1.041s-.67 1.041 0 1.041"/>
  <defs>
    <path id="ai" d="M61.271 22.387h1.005v1.041h-1.005z"/>
  </defs>
  <clipPath id="aj">
    <use xlink:href="#ai" overflow="visible"/>
  </clipPath>
  <path clip-path="url(#aj)" fill="#231F20" d="M61.773 23.428c.67 0 .671-1.041 0-1.041-.669 0-.669 1.041 0 1.041"/>
  <defs>
    <path id="ak" d="M52.576 25.334h1.005v1.041h-1.005z"/>
  </defs>
  <clipPath id="al">
    <use xlink:href="#ak" overflow="visible"/>
  </clipPath>
  <path clip-path="url(#al)" fill="#231F20" d="M53.079 26.375c.67 0 .671-1.041 0-1.041-.67-.001-.671 1.041 0 1.041"/>
  <defs>
    <path id="am" d="M51.059 18.671h1.005v1.041h-1.005z"/>
  </defs>
  <clipPath id="an">
    <use xlink:href="#am" overflow="visible"/>
  </clipPath>
  <path clip-path="url(#an)" fill="#231F20" d="M51.562 19.712c.67 0 .671-1.041 0-1.041-.669 0-.67 1.041 0 1.041"/>
  <defs>
    <path id="ao" d="M46.306 25.807h1.005v1.041h-1.005z"/>
  </defs>
  <clipPath id="ap">
    <use xlink:href="#ao" overflow="visible"/>
  </clipPath>
  <path clip-path="url(#ap)" fill="#231F20" d="M46.808 26.848c.67 0 .671-1.041 0-1.041-.669 0-.671 1.041 0 1.041"/>
  <defs>
    <path id="aq" d="M36.195 15.797H37.2v1.041h-1.005z"/>
  </defs>
  <clipPath id="ar">
    <use xlink:href="#aq" overflow="visible"/>
  </clipPath>
  <path clip-path="url(#ar)" fill="#231F20" d="M36.697 16.837c.67 0 .671-1.041 0-1.041-.669 0-.671 1.041 0 1.041"/>
  <path fill="#D6D6D6" d="M47.352 5.933c.67 0 .671-1.041 0-1.041-.669 0-.671 1.041 0 1.041"/>
  <defs>
    <path id="as" d="M42.103 18.943h1.005v1.04h-1.005z"/>
  </defs>
  <clipPath id="at">
    <use xlink:href="#as" overflow="visible"/>
  </clipPath>
  <path clip-path="url(#at)" fill="#231F20" d="M42.605 19.983c.67 0 .671-1.041 0-1.041-.668 0-.67 1.041 0 1.041"/>
  <path fill="#D6D6D6" d="M59.188 10.536c.804 0 .805-1.25 0-1.25s-.807 1.25 0 1.25M61.642 18.108c.669 0 .671-1.041 0-1.041-.67 0-.671 1.041 0 1.041"/>
  <defs>
    <path id="au" d="M55.966 30.104h1.006v1.041h-1.006z"/>
  </defs>
  <clipPath id="av">
    <use xlink:href="#au" overflow="visible"/>
  </clipPath>
  <path clip-path="url(#av)" fill="#231F20" d="M56.469 31.145c.67 0 .671-1.041 0-1.041-.669 0-.671 1.041 0 1.041"/>
  <path fill="#D6D6D6" d="M58.6 12.739c.669 0 .671-1.041 0-1.041-.67 0-.671 1.041 0 1.041M55.283 10.787c.67 0 .671-1.041 0-1.041-.669 0-.671 1.041 0 1.041M53.95 8.714c.669 0 .671-1.041 0-1.041-.67 0-.671 1.041 0 1.041M44.909 4.358c.402 0 .402-.625 0-.625s-.402.625 0 .625M39.679 3.6c.402 0 .402-.625 0-.625s-.402.625 0 .625"/>
  <defs>
    <path id="aw" d="M61.441 25.635h1.005v1.041h-1.005z"/>
  </defs>
  <clipPath id="ax">
    <use xlink:href="#aw" overflow="visible"/>
  </clipPath>
  <path clip-path="url(#ax)" fill="#231F20" d="M61.943 26.676c.67 0 .671-1.041 0-1.041-.669 0-.67 1.041 0 1.041"/>
  <path fill="none" stroke="#D6D6D6" stroke-width=".208" stroke-miterlimit="10" d="M64.571 22.042l-11.492 3.813M53.079 25.854L58.6 12.218M64.571 22.042l-11.306-4.068M53.265 17.974l5.334-5.755M58.6 12.219l-11.844 5.716M46.756 17.935l7.194-9.741M53.95 8.194L42.893 14.45M42.893 14.45l2.013-10.415M44.909 4.045L35.28 11.88M35.234 12.03l4.501-8.832"/>
  <path fill="none" stroke="#D6D6D6" stroke-width=".25" stroke-miterlimit="10" d="M63.805 22.279l-1.886 4.012M61.92 26.291l-.278-8.704M61.642 17.587l-8.738-1.778M52.904 15.809L47.38 5.501M47.423 5.488l7.858 4.775"/>
  <path fill="none" stroke="#D6D6D6" stroke-width=".208" stroke-miterlimit="10" d="M61.812 22.896l-5.355 7.773M56.457 30.669l3.651-10.233M60.108 20.436l-3.646 1.093M56.482 21.596l-1.201-11.332M55.288 10.284l-3.735 8.882M51.547 19.146l1.533 6.708"/>
  <path fill="#D6D6D6" d="M52.972 16.308c.669 0 .67-1.041 0-1.041s-.671 1.041 0 1.041"/>
  <path fill="none" stroke="#D6D6D6" stroke-width=".208" stroke-miterlimit="10" d="M26.528 5.424l8.772 6.53M35.301 11.955l1.415 4.407M36.715 16.361l6.179-1.911M42.893 14.45l3.555 1.144M46.448 15.594l-11.583 11.6M34.865 27.194l1.85-10.833M34.865 27.194l16.688-8.028M34.981 27.158l18.186-1.319M56.469 30.624l1.119 4.721M57.588 35.345l-22.703-8.086M34.865 27.194l21.604 3.43M53.265 17.974l-6.817-2.379M42.575 19.473l4.233 6.855M28.36 57.863l10.656-10.899M18.133 27.963l5.756-.534M23.889 27.429l-4.637 5.254M40.411 51.321l13.987-3.197M39.016 46.964l15.383 1.16M34.865 27.194l5.988 8.91M40.853 36.104l16.735-.759M40.853 36.104l13.546 12.021M33.11 43.826l-4.15 1.528M28.96 45.354l3.86 3.477M36.033 59.988l18.366-11.864M35.301 11.955l-6.062 6.681M29.238 18.635l7.459-2.318M57.588 35.345l6.727 4.071M56.469 30.624l7.846 8.792M23.889 27.429l2.765 3.003M26.654 30.432l2.959-5.621M29.613 24.811l-5.724 2.619M26.654 30.432l-2.388 5.206M23.889 27.429l.376 8.208M29.238 18.635l-2.964-6.685M26.274 11.951l9.027.004M56.469 30.624l3.61-1.173M60.08 29.451l4.235 9.965M18.133 27.963l-1.457-10.31M23.889 27.429l-7.213-9.776M26.274 11.951l-4.939 4.261M21.335 16.211l7.88 2.348M19.252 32.683l4.979 2.845M29.759 24.765l5.235 2.389M34.994 27.154l-8.351 3.242M26.643 30.396l2.269 6.579M26.643 30.396l14.21 5.708M24.232 35.528l4.68 1.447M19.252 32.683l3.39 4.767M29.613 24.811l7.084-8.494M29.215 18.558l.398 6.252M29.215 18.558l-5.326 8.871M16.695 17.712l4.641-1.501M60.08 29.451l1.693-6.543M61.943 26.156l4.07.549M61.943 26.156l-1.863 3.295"/>
  <path fill="none" stroke="#231F20" stroke-width=".25" stroke-miterlimit="10" d="M48.172 16.107l8.161 5.061M56.333 21.167l.943-8.118"/>
  <path fill="#231F20" d="M48.48 8.314c1.339 0 1.342-2.082 0-2.082-1.339 0-1.342 2.082 0 2.082M48.172 17.148c1.339 0 1.342-2.082 0-2.082-1.339 0-1.342 2.082 0 2.082M57.209 13.872c1.339 0 1.342-2.082 0-2.082-1.339 0-1.342 2.082 0 2.082"/>
  <path fill="none" stroke="#231F20" stroke-width=".25" stroke-miterlimit="10" d="M48.172 16.107l.308-8.833M57.209 12.831l-9.037 3.275"/>
  <path fill="#231F20" d="M36.197 20.853c1.339 0 1.342-2.082 0-2.082-1.339 0-1.341 2.082 0 2.082M56.333 22.208c1.339 0 1.342-2.082 0-2.082-1.339 0-1.342 2.082 0 2.082"/>
  <path fill="none" stroke="#231F20" stroke-width=".25" stroke-miterlimit="10" d="M36.138 19.83l12.034-3.723M36.138 19.83l20.195 1.337M48.48 7.273L36.138 19.831M35.129 34.258l1.333 10.822M35.129 34.258l14.123-3.697M49.252 30.561l7.081-9.394M56.333 21.167L35.128 34.258M36.138 19.83l-7.583 11.181M28.555 31.011l6.574 3.247M36.461 45.08l-4.95 6.141M36.461 45.08l.473 13.009M36.461 45.08l8.556-.692M45.017 44.388l4.234-13.827M49.252 30.561l-12.791 14.52M24.92 50.606l12.013 7.483M24.92 50.606l1.703 7.184M17.314 44.956l7.606 5.65M24.92 50.606l2.91-8.904M31.511 51.221l5.422 6.868M17.314 44.956l10.516-3.254M36.461 45.08l-19.482-7.414M16.979 37.666l18.15-3.408M49.252 30.561l3.94 6.478M53.192 37.038l-8.176 7.35"/>
  <path fill="#231F20" d="M28.585 32.01c1.34 0 1.342-2.081 0-2.081-1.339 0-1.341 2.081 0 2.081M53.192 38.079c1.339 0 1.342-2.082 0-2.082-1.338 0-1.341 2.082 0 2.082M35.129 35.299c1.339 0 1.342-2.082 0-2.082-1.339 0-1.342 2.082 0 2.082M49.252 31.601c1.339 0 1.342-2.081 0-2.081-1.339 0-1.341 2.081 0 2.081M36.461 46.121c1.339 0 1.341-2.081 0-2.081-1.339 0-1.341 2.081 0 2.081M31.511 52.262c1.34 0 1.342-2.082 0-2.082-1.339 0-1.341 2.082 0 2.082M45.017 45.429c1.339 0 1.342-2.082 0-2.082-1.339 0-1.341 2.082 0 2.082M27.83 42.743c1.339 0 1.341-2.082 0-2.082-1.339 0-1.342 2.082 0 2.082M16.979 38.707c1.339 0 1.342-2.082 0-2.082-1.339 0-1.342 2.082 0 2.082M16.586 29.63c1.339 0 1.342-2.082 0-2.082-1.339 0-1.342 2.082 0 2.082M45.757 28.745c1.339 0 1.342-2.081 0-2.081-1.339 0-1.342 2.081 0 2.081M26.05 24.012c1.34 0 1.342-2.082 0-2.082-1.339 0-1.341 2.082 0 2.082M34.984 5.04c1.339 0 1.342-2.082 0-2.082-1.339 0-1.342 2.082 0 2.082M43.652 4.711c.67 0 .671-1.041 0-1.041-.669 0-.67 1.041 0 1.041M52.151 7.596c.669 0 .671-1.041 0-1.041-.67 0-.671 1.041 0 1.041M62.602 18.588c.67 0 .671-1.041 0-1.041-.67 0-.671 1.041 0 1.041M24.92 51.646c1.339 0 1.342-2.081 0-2.081-1.339 0-1.342 2.081 0 2.081M17.314 45.996c1.34 0 1.342-2.081 0-2.081-1.339 0-1.341 2.081 0 2.081"/>
  <path fill="none" stroke="#231F20" stroke-width=".25" stroke-miterlimit="10" d="M28.555 31.011l-2.552-8.044M36.138 19.83l-10.136 3.137M36.138 19.83L34.984 3.998M34.984 3.999l-8.981 18.968M26.003 22.967l-9.417 5.622M16.586 28.589l11.969 2.422M36.138 19.83l13.113 10.731M34.984 3.999l13.794 3.307M48.778 7.305l-5.126-3.114M43.652 4.191l-8.668-.192M48.48 7.273l8.729 5.558M57.094 13.13l-4.857-6.082M52.272 7.032l-3.973.186M34.984 3.999l13.188 12.107M56.333 21.167l6.269-3.1M57.277 13.05l5.325 5.018"/>
  <path fill="none" stroke="#231F20" stroke-width=".208" stroke-miterlimit="10" d="M24.885 50.967l-6.016 1.861M18.869 52.828l-1.555-7.872M17.37 45.237l-2.66 2.753M14.71 47.99l2.269-10.324M16.911 37.913l.402 7.043M18.869 52.828l2.893 2.255M21.762 55.083l3.124-4.116"/>
  <g>
    <defs>
      <path id="ay" d="M5.403 63.744h56.075v5.253H5.403z"/>
    </defs>
    <clipPath id="az">
      <use xlink:href="#ay" overflow="visible"/>
    </clipPath>
    <g clip-path="url(#az)">
      <defs>
        <path id="aA" d="M61.478 66.371c0 1.45-12.553 2.626-28.038 2.626-15.484 0-28.037-1.176-28.037-2.626 0-1.451 12.553-2.627 28.037-2.627 15.485 0 28.038 1.176 28.038 2.627"/>
      </defs>
      <clipPath id="aB">
        <use xlink:href="#aA" overflow="visible"/>
      </clipPath>
      <path clip-path="url(#aB)" fill="#F9F9FC" d="M5.403 63.744h56.075v5.253H5.403z"/>
      <path clip-path="url(#aB)" fill="#F9F9FC" d="M59.115 66.208c.008 1.254-11.48 2.344-25.66 2.434-14.18.089-25.681-.854-25.689-2.108-.008-1.254 11.48-2.344 25.66-2.433 14.18-.09 25.681.853 25.689 2.107"/>
      <path clip-path="url(#aB)" fill="#F9F9FC" d="M59.037 66.209c.008 1.248-11.431 2.333-25.548 2.422-14.119.09-25.57-.851-25.578-2.099s11.431-2.333 25.549-2.422c14.118-.089 25.569.85 25.577 2.099"/>
      <path clip-path="url(#aB)" fill="#F9F9FC" d="M58.959 66.21c.008 1.242-11.381 2.322-25.437 2.411-14.057.089-25.458-.847-25.466-2.09-.008-1.243 11.381-2.322 25.437-2.411 14.057-.089 25.459.847 25.466 2.09"/>
      <path clip-path="url(#aB)" fill="#F9F9FC" d="M58.881 66.21c.008 1.237-11.331 2.312-25.326 2.401-13.993.088-25.346-.842-25.354-2.081-.008-1.237 11.331-2.312 25.326-2.4 13.995-.089 25.347.843 25.354 2.08"/>
      <path clip-path="url(#aB)" fill="#F9F9FC" d="M58.803 66.211c.008 1.231-11.281 2.302-25.214 2.391s-25.234-.84-25.242-2.072c-.008-1.231 11.281-2.302 25.214-2.391 13.933-.088 25.234.84 25.242 2.072"/>
      <path clip-path="url(#aB)" fill="#F9F9FC" d="M58.726 66.211c.007 1.227-11.231 2.292-25.103 2.38-13.872.088-25.123-.835-25.13-2.063-.008-1.227 11.231-2.292 25.102-2.381 13.871-.085 25.123.837 25.131 2.064"/>
      <path clip-path="url(#aB)" fill="#F9F9FC" d="M58.647 66.212c.008 1.221-11.181 2.282-24.991 2.369-13.81.087-25.011-.832-25.019-2.053-.008-1.222 11.181-2.282 24.991-2.37 13.81-.087 25.012.832 25.019 2.054"/>
      <path clip-path="url(#aB)" fill="#F9F9FC" d="M58.569 66.212c.008 1.216-11.131 2.272-24.879 2.359s-24.9-.828-24.908-2.044c-.007-1.216 11.132-2.272 24.88-2.359 13.748-.087 24.9.828 24.907 2.044"/>
      <path clip-path="url(#aB)" fill="#F9F9FC" d="M58.491 66.213c.008 1.21-11.081 2.262-24.768 2.349-13.686.086-24.788-.825-24.795-2.035-.008-1.211 11.081-2.262 24.768-2.349 13.686-.086 24.788.825 24.795 2.035"/>
      <path clip-path="url(#aB)" fill="#F9F9FC" d="M58.414 66.213c.007 1.205-11.032 2.252-24.656 2.338-13.625.086-24.677-.82-24.684-2.026-.008-1.204 11.031-2.251 24.656-2.337s24.676.821 24.684 2.025"/>
      <path clip-path="url(#aB)" fill="#F9F9FC" d="M58.335 66.214c.008 1.199-10.981 2.241-24.545 2.327-13.563.086-24.564-.817-24.572-2.017-.008-1.199 10.982-2.241 24.545-2.327 13.564-.087 24.565.818 24.572 2.017"/>
      <path clip-path="url(#aB)" fill="#F9F9FC" d="M58.257 66.215c.008 1.193-10.932 2.23-24.433 2.316-13.502.085-24.453-.813-24.461-2.008-.007-1.193 10.932-2.23 24.434-2.316 13.501-.085 24.453.814 24.46 2.008"/>
      <path clip-path="url(#aB)" fill="#F9F9FC" d="M58.18 66.215c.007 1.188-10.882 2.221-24.322 2.306-13.44.085-24.341-.81-24.348-1.998-.008-1.188 10.881-2.221 24.321-2.306s24.341.809 24.349 1.998"/>
      <path clip-path="url(#aB)" fill="#F9F9FC" d="M58.102 66.216c.007 1.183-10.832 2.211-24.21 2.295-13.378.085-24.23-.806-24.237-1.989-.008-1.183 10.832-2.21 24.21-2.295 13.378-.085 24.229.805 24.237 1.989"/>
      <path clip-path="url(#aB)" fill="#F9F9FC" d="M58.023 66.216c.007 1.178-10.782 2.201-24.099 2.285-13.316.084-24.117-.803-24.125-1.979-.007-1.178 10.782-2.201 24.099-2.284 13.316-.085 24.119.8 24.125 1.978"/>
      <path clip-path="url(#aB)" fill="#F7FBFF" d="M57.945 66.217c.007 1.172-10.732 2.19-23.987 2.274-13.255.083-24.006-.799-24.013-1.971-.008-1.173 10.731-2.19 23.986-2.274 13.257-.084 24.007.799 24.014 1.971"/>
      <path clip-path="url(#aB)" fill="#F7F9FC" d="M57.868 66.217c.007 1.167-10.682 2.181-23.875 2.264-13.194.084-23.895-.794-23.902-1.961-.008-1.167 10.681-2.181 23.875-2.264 13.193-.084 23.894.795 23.902 1.961"/>
      <path clip-path="url(#aB)" fill="#F7F9FC" d="M57.79 66.218c.007 1.161-10.632 2.17-23.764 2.253-13.132.083-23.783-.791-23.79-1.952-.008-1.161 10.632-2.17 23.763-2.253 13.131-.083 23.784.791 23.791 1.952"/>
      <path clip-path="url(#aB)" fill="#F7F9FC" d="M57.711 66.219c.007 1.155-10.582 2.159-23.652 2.242-13.07.083-23.671-.787-23.679-1.943-.007-1.155 10.582-2.16 23.652-2.242 13.072-.084 23.673.786 23.679 1.943"/>
      <path clip-path="url(#aB)" fill="#F7F9FC" d="M57.633 66.219c.007 1.15-10.532 2.149-23.541 2.232-13.008.082-23.559-.784-23.566-1.935-.008-1.15 10.532-2.149 23.54-2.231s23.56.783 23.567 1.934"/>
      <path clip-path="url(#aB)" fill="#F7F9FC" d="M57.556 66.22c.007 1.146-10.482 2.14-23.429 2.221-12.947.082-23.448-.779-23.455-1.925-.008-1.145 10.482-2.139 23.428-2.221 12.947-.082 23.449.779 23.456 1.925"/>
      <path clip-path="url(#aB)" fill="#F7F9FC" d="M57.478 66.22c.007 1.14-10.433 2.13-23.317 2.211-12.886.081-23.337-.775-23.344-1.916-.007-1.139 10.432-2.129 23.317-2.21 12.886-.082 23.337.775 23.344 1.915"/>
      <path clip-path="url(#aB)" fill="#F7F9FC" d="M57.399 66.221c.007 1.134-10.382 2.119-23.206 2.2-12.823.081-23.225-.772-23.232-1.906-.007-1.135 10.383-2.119 23.206-2.2 12.824-.082 23.226.772 23.232 1.906"/>
      <path clip-path="url(#aB)" fill="#F7F9FC" d="M57.322 66.221c.007 1.129-10.333 2.109-23.095 2.19-12.761.081-23.113-.77-23.12-1.897-.007-1.129 10.333-2.109 23.094-2.188 12.762-.083 23.114.767 23.121 1.895"/>
      <path clip-path="url(#aB)" fill="#F7F9FC" d="M57.244 66.222c.006 1.123-10.284 2.098-22.983 2.178-12.7.081-23.001-.765-23.008-1.888-.008-1.123 10.283-2.099 22.982-2.179 12.7-.08 23.002.766 23.009 1.889"/>
      <path clip-path="url(#aB)" fill="#F7F7FB" d="M57.166 66.223c.007 1.117-10.233 2.088-22.871 2.168-12.639.08-22.89-.762-22.897-1.879-.007-1.118 10.233-2.089 22.871-2.169 12.639-.079 22.89.761 22.897 1.88"/>
      <path clip-path="url(#aB)" fill="#F7F7F8" d="M57.087 66.223c.007 1.112-10.183 2.078-22.759 2.158-12.577.079-22.779-.758-22.785-1.87-.008-1.112 10.182-2.078 22.759-2.158 12.577-.08 22.779.757 22.785 1.87"/>
      <path clip-path="url(#aB)" fill="#F7F7F8" d="M57.01 66.224c.007 1.106-10.133 2.067-22.648 2.147-12.516.079-22.666-.755-22.674-1.861-.007-1.106 10.133-2.068 22.648-2.147 12.516-.08 22.667.753 22.674 1.861"/>
      <path clip-path="url(#aB)" fill="#F7F7F8" d="M56.932 66.224c.007 1.102-10.083 2.059-22.537 2.137-12.453.079-22.554-.75-22.561-1.852-.007-1.101 10.083-2.057 22.536-2.137 12.454-.078 22.555.751 22.562 1.852"/>
      <path clip-path="url(#aB)" fill="#F7F7F8" d="M56.854 66.225c.007 1.096-10.033 2.048-22.425 2.126-12.392.078-22.443-.746-22.45-1.843-.007-1.095 10.033-2.047 22.425-2.126 12.391-.078 22.443.747 22.45 1.843"/>
      <path clip-path="url(#aB)" fill="#F7F7F8" d="M56.775 66.225c.007 1.091-9.983 2.038-22.313 2.116-12.331.078-22.332-.743-22.338-1.833-.007-1.091 9.983-2.038 22.313-2.116s22.332.743 22.338 1.833"/>
      <path clip-path="url(#aB)" fill="#F7F7F8" d="M56.698 66.226c.007 1.085-9.934 2.027-22.202 2.104-12.269.079-22.22-.737-22.227-1.822-.007-1.085 9.933-2.027 22.202-2.105 12.269-.079 22.22.738 22.227 1.823"/>
      <path clip-path="url(#aB)" fill="#F7F6FA" d="M56.62 66.227c.007 1.079-9.883 2.017-22.09 2.094s-22.108-.735-22.115-1.814c-.007-1.08 9.883-2.018 22.09-2.095 12.206-.078 22.108.734 22.115 1.815"/>
      <path clip-path="url(#aB)" fill="#F7F6F8" d="M56.542 66.227c.007 1.074-9.833 2.007-21.979 2.084-12.145.077-21.996-.731-22.003-1.806s9.834-2.008 21.979-2.084c12.145-.077 21.996.731 22.003 1.806"/>
      <path clip-path="url(#aB)" fill="#F7F6F8" d="M56.463 66.228c.007 1.068-9.783 1.996-21.867 2.073-12.084.076-21.884-.729-21.891-1.797-.007-1.068 9.783-1.997 21.867-2.073 12.083-.077 21.886.727 21.891 1.797"/>
      <path clip-path="url(#aB)" fill="#F7F6F8" d="M56.386 66.228c.007 1.063-9.734 1.987-21.756 2.063-12.022.075-21.773-.725-21.78-1.788-.006-1.063 9.734-1.986 21.756-2.062s21.773.725 21.78 1.787"/>
      <path clip-path="url(#aB)" fill="#F5F6F7" d="M56.308 66.229c.007 1.058-9.684 1.978-21.644 2.052-11.96.076-21.662-.721-21.668-1.778-.007-1.058 9.684-1.977 21.644-2.052s21.661.72 21.668 1.778"/>
      <path clip-path="url(#aB)" fill="#F5F5F7" d="M56.229 66.229c.007 1.053-9.634 1.967-21.532 2.042-11.899.075-21.55-.717-21.557-1.77-.006-1.052 9.634-1.966 21.533-2.041 11.898-.075 21.551.717 21.556 1.769"/>
      <path clip-path="url(#aB)" fill="#F5F5F6" d="M56.152 66.229c.006 1.047-9.584 1.956-21.421 2.031-11.837.073-21.438-.714-21.445-1.761-.007-1.046 9.584-1.956 21.421-2.03 11.837-.074 21.438.714 21.445 1.76"/>
      <path clip-path="url(#aB)" fill="#F5F5F6" d="M56.074 66.23c.006 1.041-9.534 1.945-21.309 2.02-11.775.075-21.327-.709-21.334-1.75-.006-1.042 9.535-1.946 21.31-2.021s21.326.709 21.333 1.751"/>
      <path clip-path="url(#aB)" fill="#F4F5F6" d="M55.996 66.23c.007 1.036-9.484 1.936-21.198 2.01-11.713.074-21.215-.706-21.221-1.741-.007-1.036 9.484-1.936 21.198-2.01 11.713-.074 21.215.705 21.221 1.741"/>
      <path clip-path="url(#aB)" fill="#F4F5F6" d="M55.917 66.231c.007 1.03-9.434 1.925-21.086 1.999-11.652.073-21.103-.702-21.11-1.732-.006-1.03 9.434-1.926 21.087-1.999 11.651-.074 21.104.701 21.109 1.732"/>
      <path clip-path="url(#aB)" fill="#F4F5F5" d="M55.84 66.231c.006 1.025-9.384 1.915-20.975 1.989-11.59.074-20.991-.698-20.998-1.724-.006-1.025 9.385-1.915 20.975-1.988s20.991.699 20.998 1.723"/>
      <path clip-path="url(#aB)" fill="#F4F5F5" d="M55.762 66.232c.006 1.021-9.334 1.905-20.863 1.979-11.529.072-20.88-.695-20.887-1.715-.006-1.02 9.335-1.905 20.864-1.978 11.529-.073 20.88.695 20.886 1.714"/>
      <path clip-path="url(#aB)" fill="#F3F4F5" d="M55.684 66.232c.006 1.015-9.284 1.896-20.751 1.968-11.467.072-20.769-.69-20.775-1.705-.006-1.014 9.284-1.895 20.752-1.967 11.465-.073 20.768.691 20.774 1.704"/>
      <path clip-path="url(#aB)" fill="#F3F4F6" d="M55.605 66.233c.007 1.009-9.234 1.885-20.64 1.957-11.405.072-20.656-.687-20.663-1.696-.006-1.008 9.235-1.885 20.64-1.956 11.407-.072 20.658.687 20.663 1.695"/>
      <path clip-path="url(#aB)" fill="#F3F4F5" d="M55.528 66.233c.006 1.004-9.185 1.875-20.528 1.946-11.344.073-20.545-.683-20.552-1.687-.006-1.003 9.185-1.874 20.529-1.946 11.343-.07 20.545.684 20.551 1.687"/>
      <path clip-path="url(#aB)" fill="#F3F4F5" d="M55.45 66.234c.006.998-9.135 1.864-20.417 1.936-11.282.071-20.433-.68-20.439-1.677-.007-.998 9.134-1.864 20.417-1.937 11.282-.071 20.433.68 20.439 1.678"/>
      <path clip-path="url(#aB)" fill="#F3F2F4" d="M55.372 66.235c.006.992-9.084 1.854-20.305 1.925-11.22.071-20.321-.676-20.328-1.668-.006-.992 9.085-1.854 20.305-1.926 11.221-.07 20.322.677 20.328 1.669"/>
      <path clip-path="url(#aB)" fill="#F3F2F4" d="M55.294 66.235c.006.987-9.035 1.844-20.194 1.915-11.159.07-20.21-.673-20.216-1.659-.006-.987 9.035-1.844 20.194-1.915 11.158-.069 20.21.673 20.216 1.659"/>
      <path clip-path="url(#aB)" fill="#F3F4F5" d="M55.216 66.236c.006.981-8.985 1.834-20.082 1.903-11.097.07-20.098-.668-20.105-1.649-.006-.981 8.985-1.834 20.083-1.904 11.097-.07 20.098.669 20.104 1.65"/>
      <path clip-path="url(#aB)" fill="#F3F2F3" d="M55.138 66.236c.006.978-8.935 1.824-19.97 1.894-11.036.07-19.987-.664-19.993-1.641-.006-.976 8.935-1.823 19.97-1.894 11.036-.069 19.987.666 19.993 1.641"/>
      <path clip-path="url(#aB)" fill="#F3F2F3" d="M55.06 66.237c.006.971-8.885 1.813-19.859 1.883-10.974.069-19.875-.661-19.881-1.632-.006-.971 8.885-1.812 19.859-1.883 10.973-.069 19.875.662 19.881 1.632"/>
      <path clip-path="url(#aB)" fill="#F1F2F4" d="M54.982 66.237c.006.966-8.835 1.804-19.748 1.873-10.912.068-19.763-.658-19.769-1.623-.006-.965 8.835-1.803 19.747-1.872 10.913-.069 19.764.657 19.77 1.622"/>
      <path clip-path="url(#aB)" fill="#F0F0F3" d="M54.904 66.238c.006.96-8.785 1.793-19.636 1.861-10.85.069-19.652-.653-19.657-1.613-.007-.959 8.785-1.793 19.635-1.861 10.851-.068 19.652.653 19.658 1.613"/>
      <path clip-path="url(#aB)" fill="#F0F0F3" d="M54.826 66.239c.006.954-8.735 1.782-19.524 1.851s-19.54-.649-19.546-1.604c-.006-.954 8.735-1.783 19.524-1.851 10.789-.069 19.54.65 19.546 1.604"/>
      <path clip-path="url(#aB)" fill="#F0F0F1" d="M54.748 66.239c.006.949-8.685 1.772-19.413 1.841-10.727.067-19.428-.646-19.434-1.595-.006-.949 8.685-1.773 19.413-1.841 10.727-.067 19.428.647 19.434 1.595"/>
      <path clip-path="url(#aB)" fill="#F0EFF1" d="M54.67 66.24c.006.943-8.636 1.763-19.301 1.83-10.666.067-19.317-.644-19.323-1.586-.006-.943 8.636-1.763 19.301-1.83 10.666-.067 19.317.643 19.323 1.586"/>
      <path clip-path="url(#aB)" fill="#EFEFF1" d="M54.592 66.24c.006.938-8.585 1.753-19.189 1.819-10.604.067-19.206-.639-19.211-1.576-.006-.938 8.585-1.752 19.189-1.819s19.205.64 19.211 1.576"/>
      <path clip-path="url(#aB)" fill="#EFEFF0" d="M54.514 66.241c.006.932-8.536 1.742-19.078 1.809s-19.093-.635-19.099-1.567c-.006-.933 8.535-1.742 19.078-1.809 10.542-.067 19.093.635 19.099 1.567"/>
      <path clip-path="url(#aB)" fill="#EFEFF1" d="M54.436 66.241c.006.927-8.486 1.732-18.967 1.799-10.48.066-18.981-.632-18.987-1.559-.006-.927 8.486-1.731 18.966-1.798 10.481-.066 18.982.631 18.988 1.558"/>
      <path clip-path="url(#aB)" fill="#EFEFF0" d="M54.358 66.242c.006.921-8.436 1.722-18.855 1.787-10.419.066-18.87-.627-18.876-1.549-.006-.921 8.436-1.722 18.855-1.787 10.419-.066 18.87.627 18.876 1.549"/>
      <path clip-path="url(#aB)" fill="#EFEDEE" d="M54.28 66.243c.006.915-8.386 1.711-18.743 1.776-10.358.065-18.758-.624-18.764-1.54-.006-.915 8.385-1.711 18.743-1.776 10.357-.065 18.758.624 18.764 1.54"/>
      <path clip-path="url(#aB)" fill="#ECEDEE" d="M54.202 66.243c.006.91-8.336 1.701-18.631 1.767-10.296.065-18.647-.62-18.653-1.53-.006-.911 8.336-1.702 18.632-1.767 10.296-.066 18.647.62 18.652 1.53"/>
      <path clip-path="url(#aB)" fill="#ECECEE" d="M54.124 66.244c.005.904-8.286 1.69-18.52 1.756-10.234.064-18.535-.617-18.541-1.521-.006-.905 8.286-1.691 18.52-1.755 10.234-.067 18.535.615 18.541 1.52"/>
      <path clip-path="url(#aB)" fill="#EBECEE" d="M54.046 66.244c.006.899-8.236 1.682-18.409 1.745-10.172.064-18.423-.612-18.429-1.512-.005-.899 8.236-1.682 18.409-1.745 10.172-.064 18.423.613 18.429 1.512"/>
      <path clip-path="url(#aB)" fill="#EBECEE" d="M53.968 66.245c.006.895-8.186 1.671-18.297 1.734-10.111.065-18.311-.609-18.317-1.502-.006-.895 8.186-1.671 18.297-1.734 10.11-.065 18.312.608 18.317 1.502"/>
      <path clip-path="url(#aB)" fill="#EAEBED" d="M53.89 66.245c.006.889-8.136 1.661-18.185 1.725s-18.2-.605-18.206-1.494c-.005-.889 8.137-1.66 18.185-1.725 10.05-.063 18.201.605 18.206 1.494"/>
      <path clip-path="url(#aB)" fill="#EAEBED" d="M53.812 66.246c.005.883-8.086 1.65-18.074 1.714-9.988.062-18.089-.602-18.094-1.485-.005-.883 8.086-1.65 18.074-1.714 9.987-.063 18.088.602 18.094 1.485"/>
      <path clip-path="url(#aB)" fill="#E9E9EB" d="M53.734 66.246c.005.878-8.037 1.641-17.962 1.703-9.926.063-17.977-.599-17.982-1.476-.006-.878 8.036-1.64 17.962-1.703 9.925-.062 17.977.599 17.982 1.476"/>
      <path clip-path="url(#aB)" fill="#E9E9EB" d="M53.656 66.247c.006.872-7.986 1.63-17.851 1.692-9.864.062-17.865-.594-17.87-1.467-.006-.872 7.986-1.63 17.85-1.692 9.865-.062 17.866.595 17.871 1.467"/>
      <path clip-path="url(#aB)" fill="#E9E9EB" d="M53.578 66.248c.005.866-7.937 1.619-17.739 1.682-9.803.062-17.754-.591-17.76-1.458-.005-.866 7.937-1.619 17.74-1.682 9.802-.061 17.753.591 17.759 1.458"/>
      <path clip-path="url(#aB)" fill="#E9E9EB" d="M53.5 66.248c.005.861-7.887 1.61-17.627 1.672-9.742.062-17.643-.587-17.648-1.448-.005-.861 7.887-1.61 17.628-1.672 9.74-.062 17.642.587 17.647 1.448"/>
      <path clip-path="url(#aB)" fill="#E8E9EA" d="M53.422 66.249c.005.855-7.837 1.6-17.516 1.66-9.679.062-17.53-.583-17.536-1.438-.005-.856 7.837-1.6 17.516-1.661 9.68-.061 17.531.584 17.536 1.439"/>
      <path clip-path="url(#aB)" fill="#E8E9EA" d="M53.344 66.249c.005.851-7.787 1.59-17.404 1.65-9.618.061-17.419-.579-17.424-1.43s7.786-1.59 17.404-1.65c9.618-.06 17.419.579 17.424 1.43"/>
      <path clip-path="url(#aB)" fill="#E7E7E9" d="M53.266 66.25c.005.845-7.737 1.579-17.293 1.64s-17.307-.576-17.312-1.421 7.737-1.579 17.293-1.64 17.307.576 17.312 1.421"/>
      <path clip-path="url(#aB)" fill="#E7E7E9" d="M53.188 66.251c.005.839-7.687 1.568-17.181 1.629-9.495.059-17.195-.572-17.201-1.412-.005-.84 7.687-1.568 17.181-1.629 9.495-.06 17.196.572 17.201 1.412"/>
      <path clip-path="url(#aB)" fill="#E7E6E8" d="M53.11 66.251c.005.834-7.637 1.559-17.07 1.618-9.432.06-17.083-.568-17.088-1.402-.006-.834 7.637-1.559 17.069-1.618 9.433-.06 17.084.568 17.089 1.402"/>
      <path clip-path="url(#aB)" fill="#E7E6E8" d="M53.032 66.252c.005.828-7.587 1.548-16.958 1.607-9.372.06-16.972-.564-16.978-1.394-.005-.828 7.588-1.548 16.958-1.607 9.372-.059 16.973.565 16.978 1.394"/>
      <path clip-path="url(#aB)" fill="#E5E6E7" d="M52.954 66.252c.005.823-7.538 1.538-16.847 1.598-9.309.059-16.86-.562-16.865-1.385s7.537-1.538 16.846-1.597c9.31-.058 16.861.561 16.866 1.384"/>
      <path clip-path="url(#aB)" fill="#E4E5E8" d="M52.876 66.253c.005.817-7.487 1.528-16.735 1.586-9.247.06-16.748-.557-16.754-1.374-.005-.817 7.488-1.528 16.735-1.587 9.248-.059 16.749.557 16.754 1.375"/>
      <path clip-path="url(#aB)" fill="#E4E4E6" d="M52.798 66.253c.005.812-7.437 1.52-16.624 1.576-9.185.059-16.636-.553-16.641-1.365-.006-.812 7.437-1.519 16.623-1.576 9.186-.059 16.637.553 16.642 1.365"/>
      <path clip-path="url(#aB)" fill="#E3E4E6" d="M52.72 66.254c.005.807-7.388 1.508-16.512 1.565-9.124.058-16.526-.55-16.53-1.356-.005-.807 7.387-1.508 16.511-1.565 9.125-.058 16.526.549 16.531 1.356"/>
      <path clip-path="url(#aB)" fill="#E3E3E5" d="M52.642 66.254c.005.802-7.338 1.498-16.4 1.556-9.063.057-16.414-.546-16.419-1.348-.005-.802 7.338-1.498 16.4-1.555 9.063-.057 16.414.546 16.419 1.347"/>
      <path clip-path="url(#aB)" fill="#E3E3E5" d="M52.564 66.255c.005.796-7.288 1.487-16.289 1.544-9.001.058-16.302-.542-16.307-1.338-.005-.796 7.288-1.487 16.289-1.544 9.001-.059 16.302.542 16.307 1.338"/>
      <path clip-path="url(#aB)" fill="#E0E1E3" d="M52.486 66.256c.005.79-7.238 1.477-16.177 1.533-8.939.057-16.19-.538-16.195-1.329-.005-.79 7.238-1.477 16.177-1.533s16.19.538 16.195 1.329"/>
      <path clip-path="url(#aB)" fill="#DFE1E2" d="M52.408 66.256c.005.785-7.188 1.467-16.066 1.523-8.877.056-16.079-.535-16.083-1.32-.005-.785 7.188-1.467 16.065-1.522 8.878-.057 16.079.534 16.084 1.319"/>
      <path clip-path="url(#aB)" fill="#E0E0E3" d="M52.33 66.257c.005.779-7.138 1.457-15.954 1.513s-15.967-.531-15.972-1.312c-.005-.779 7.138-1.456 15.954-1.512 8.816-.056 15.967.531 15.972 1.311"/>
      <path clip-path="url(#aB)" fill="#DFE0E2" d="M52.252 66.257c.005.774-7.088 1.447-15.842 1.502-8.755.056-15.856-.527-15.861-1.301-.005-.774 7.088-1.447 15.843-1.502 8.755-.056 15.855.527 15.86 1.301"/>
      <path clip-path="url(#aB)" fill="#DFE0E2" d="M52.174 66.258c.005.769-7.038 1.438-15.73 1.491-8.693.055-15.744-.523-15.749-1.292-.005-.77 7.038-1.437 15.731-1.492 8.692-.055 15.743.524 15.748 1.293"/>
      <path clip-path="url(#aB)" fill="#DFE0E2" d="M52.096 66.258c.005.764-6.988 1.427-15.62 1.481-8.63.055-15.631-.521-15.636-1.283-.005-.764 6.988-1.427 15.619-1.481 8.631-.054 15.632.52 15.637 1.283"/>
      <path clip-path="url(#aB)" fill="#DCDDE0" d="M52.018 66.259c.005.758-6.938 1.416-15.508 1.471-8.569.054-15.52-.517-15.525-1.274-.005-.759 6.938-1.416 15.508-1.471 8.569-.054 15.52.516 15.525 1.274"/>
      <path clip-path="url(#aB)" fill="#DBDDE0" d="M51.94 66.26c.005.752-6.888 1.405-15.396 1.459s-15.409-.512-15.414-1.265c-.004-.752 6.889-1.406 15.397-1.46 8.508-.054 15.408.513 15.413 1.266"/>
      <path clip-path="url(#aB)" fill="#DBDCDF" d="M51.862 66.26c.004.747-6.839 1.396-15.285 1.449-8.446.054-15.297-.509-15.301-1.256-.005-.747 6.838-1.396 15.284-1.449 8.446-.053 15.297.509 15.302 1.256"/>
      <path clip-path="url(#aB)" fill="#DBDBDF" d="M51.784 66.261c.004.741-6.789 1.385-15.173 1.438-8.385.053-15.185-.505-15.19-1.247-.005-.741 6.788-1.386 15.173-1.438 8.384-.053 15.185.505 15.19 1.247"/>
      <path clip-path="url(#aB)" fill="#DBDBDE" d="M51.706 66.261c.005.736-6.739 1.376-15.062 1.428-8.322.053-15.073-.501-15.078-1.237-.005-.735 6.739-1.375 15.062-1.428 8.323-.053 15.074.501 15.078 1.237"/>
      <path clip-path="url(#aB)" fill="#D9DBDD" d="M51.628 66.262c.005.73-6.688 1.365-14.95 1.417-8.261.053-14.962-.497-14.967-1.228-.004-.731 6.689-1.365 14.951-1.418 8.261-.052 14.962.499 14.966 1.229"/>
      <path clip-path="url(#aB)" fill="#D9D9DB" d="M51.55 66.262c.004.726-6.639 1.355-14.838 1.407-8.2.052-14.851-.494-14.855-1.219-.005-.726 6.638-1.355 14.838-1.407 8.199-.052 14.85.494 14.855 1.219"/>
      <path clip-path="url(#aB)" fill="#D7D8DC" d="M51.472 66.263c.004.72-6.589 1.345-14.727 1.396-8.138.051-14.739-.49-14.743-1.209-.005-.721 6.589-1.346 14.727-1.397 8.138-.052 14.739.49 14.743 1.21"/>
      <path clip-path="url(#aB)" fill="#D7D8DB" d="M51.394 66.264c.004.714-6.539 1.334-14.615 1.385-8.076.052-14.627-.486-14.632-1.2-.004-.714 6.539-1.335 14.616-1.386 8.076-.051 14.627.486 14.631 1.201"/>
      <path clip-path="url(#aB)" fill="#D5D7DA" d="M51.316 66.264c.005.709-6.489 1.324-14.503 1.375-8.015.051-14.516-.482-14.52-1.191-.005-.709 6.489-1.324 14.503-1.375 8.015-.052 14.516.482 14.52 1.191"/>
      <path clip-path="url(#aB)" fill="#D4D6DA" d="M51.238 66.265c.004.703-6.439 1.313-14.392 1.364-7.953.05-14.404-.479-14.408-1.183-.005-.703 6.439-1.314 14.392-1.364 7.952-.051 14.404.479 14.408 1.183"/>
      <path clip-path="url(#aB)" fill="#D4D6D9" d="M51.16 66.265c.004.698-6.389 1.305-14.281 1.354-7.891.051-14.292-.475-14.296-1.173-.005-.697 6.389-1.304 14.281-1.354 7.891-.05 14.292.475 14.296 1.173"/>
      <path clip-path="url(#aB)" fill="#D3D4D9" d="M51.082 66.266c.004.692-6.339 1.294-14.169 1.343-7.83.05-14.18-.472-14.185-1.164-.004-.692 6.34-1.293 14.169-1.343 7.83-.05 14.181.471 14.185 1.164"/>
      <path clip-path="url(#aB)" fill="#D3D5D7" d="M51.004 66.266c.004.688-6.29 1.284-14.058 1.333s-14.068-.468-14.073-1.154c-.004-.688 6.29-1.283 14.058-1.333 7.768-.05 14.069.467 14.073 1.154"/>
      <path clip-path="url(#aB)" fill="#D1D3D7" d="M50.926 66.267c.004.682-6.24 1.273-13.946 1.322-7.706.049-13.957-.465-13.961-1.146-.005-.682 6.239-1.273 13.946-1.322 7.706-.049 13.957.464 13.961 1.146"/>
      <path clip-path="url(#aB)" fill="#D0D2D6" d="M50.848 66.267c.004.677-6.189 1.264-13.834 1.312-7.645.048-13.846-.461-13.85-1.137s6.189-1.264 13.834-1.312c7.645-.048 13.846.461 13.85 1.137"/>
      <path clip-path="url(#aB)" fill="#D0D1D5" d="M50.77 66.268c.004.671-6.14 1.253-13.723 1.301s-13.734-.456-13.737-1.127c-.005-.671 6.139-1.253 13.722-1.301s13.734.456 13.738 1.127"/>
      <path clip-path="url(#aB)" fill="#D0D1D5" d="M50.692 66.269c.004.665-6.09 1.242-13.611 1.29-7.522.048-13.622-.453-13.627-1.118-.004-.665 6.09-1.243 13.612-1.29 7.521-.048 13.622.453 13.626 1.118"/>
      <path clip-path="url(#aB)" fill="#D0D0D4" d="M50.614 66.269c.004.66-6.04 1.232-13.5 1.28-7.459.047-13.51-.449-13.514-1.109-.005-.659 6.039-1.232 13.499-1.279 7.46-.049 13.511.448 13.515 1.108"/>
      <path clip-path="url(#aB)" fill="#CECFD4" d="M50.536 66.27c.004.654-5.99 1.223-13.388 1.269-7.398.047-13.399-.445-13.403-1.1s5.99-1.223 13.388-1.27c7.398-.045 13.399.446 13.403 1.101"/>
      <path clip-path="url(#aB)" fill="#CDCED2" d="M50.458 66.27c.004.649-5.94 1.213-13.276 1.259-7.337.047-13.287-.441-13.291-1.091-.005-.647 5.94-1.212 13.276-1.259 7.336-.046 13.287.442 13.291 1.091"/>
      <path clip-path="url(#aB)" fill="#CCCDD1" d="M50.38 66.271c.004.645-5.89 1.202-13.165 1.248s-13.175-.438-13.18-1.082c-.004-.643 5.89-1.202 13.165-1.248s13.176.438 13.18 1.082"/>
      <path clip-path="url(#aB)" fill="#CACDD0" d="M50.302 66.271c.004.639-5.84 1.192-13.053 1.238-7.214.045-13.064-.435-13.068-1.072-.004-.639 5.84-1.192 13.053-1.238 7.214-.046 13.064.434 13.068 1.072"/>
      <path clip-path="url(#aB)" fill="#C8CBD0" d="M50.224 66.271c.004.633-5.79 1.182-12.941 1.227-7.152.046-12.953-.431-12.957-1.062-.004-.633 5.791-1.182 12.942-1.228 7.151-.045 12.952.431 12.956 1.063"/>
      <path clip-path="url(#aB)" fill="#C8C9CF" d="M50.146 66.272c.004.627-5.741 1.171-12.831 1.216-7.089.045-12.84-.427-12.844-1.054-.004-.627 5.74-1.172 12.83-1.217 7.091-.044 12.842.429 12.845 1.055"/>
      <path clip-path="url(#aB)" fill="#C6C9CF" d="M50.068 66.272c.004.622-5.69 1.161-12.719 1.206-7.028.044-12.729-.424-12.733-1.045s5.691-1.161 12.719-1.206c7.028-.043 12.729.424 12.733 1.045"/>
      <path clip-path="url(#aB)" fill="#C6C8CD" d="M49.99 66.273c.004.616-5.641 1.151-12.607 1.195-6.967.044-12.617-.42-12.621-1.036s5.64-1.151 12.607-1.195c6.967-.044 12.617.42 12.621 1.036"/>
      <path clip-path="url(#aB)" fill="#C5C7CC" d="M49.912 66.273c.004.611-5.59 1.142-12.495 1.185-6.905.045-12.506-.416-12.51-1.026s5.591-1.141 12.496-1.185c6.905-.044 12.505.416 12.509 1.026"/>
      <path clip-path="url(#aB)" fill="#C5C6CB" d="M49.834 66.274c.003.605-5.541 1.131-12.384 1.174-6.844.043-12.394-.412-12.398-1.018-.004-.604 5.541-1.131 12.384-1.174 6.843-.042 12.395.414 12.398 1.018"/>
      <path clip-path="url(#aB)" fill="#C3C5CA" d="M49.756 66.274c.004.601-5.491 1.121-12.272 1.164-6.782.043-12.283-.408-12.287-1.009-.003-.6 5.491-1.12 12.273-1.163 6.782-.042 12.282.409 12.286 1.008"/>
      <path clip-path="url(#aB)" fill="#C2C4CA" d="M49.678 66.275c.004.594-5.441 1.11-12.161 1.153-6.72.042-12.171-.405-12.174-.999-.004-.595 5.441-1.111 12.161-1.153 6.72-.043 12.17.405 12.174.999"/>
      <path clip-path="url(#aB)" fill="#C1C3CA" d="M49.6 66.276c.004.589-5.391 1.1-12.049 1.142-6.659.042-12.059-.4-12.063-.989-.003-.59 5.391-1.101 12.049-1.143 6.659-.042 12.06.402 12.063.99"/>
      <path clip-path="url(#aB)" fill="#C1C3C8" d="M49.522 66.276c.003.583-5.341 1.09-11.938 1.132s-11.947-.397-11.951-.98c-.004-.584 5.341-1.09 11.938-1.132 6.597-.042 11.948.397 11.951.98"/>
      <path clip-path="url(#aB)" fill="#C0C2C7" d="M49.444 66.277c.003.577-5.291 1.079-11.826 1.121-6.535.041-11.836-.394-11.84-.972-.003-.578 5.291-1.08 11.827-1.121 6.535-.041 11.836.394 11.839.972"/>
      <path clip-path="url(#aB)" fill="#BFC0C6" d="M49.366 66.277c.004.572-5.241 1.07-11.714 1.111-6.474.04-11.724-.391-11.728-.963s5.241-1.069 11.714-1.11c6.474-.041 11.725.39 11.728.962"/>
      <path clip-path="url(#aB)" fill="#BEC0C6" d="M49.288 66.278c.004.566-5.191 1.061-11.603 1.1-6.412.041-11.612-.386-11.616-.953-.003-.566 5.192-1.06 11.603-1.1 6.412-.041 11.613.386 11.616.953"/>
      <path clip-path="url(#aB)" fill="#BEBFC4" d="M49.21 66.278c.003.562-5.142 1.05-11.492 1.09-6.349.04-11.5-.383-11.504-.943-.003-.562 5.142-1.05 11.492-1.09s11.502.382 11.504.943"/>
      <path clip-path="url(#aB)" fill="#BBBDC3" d="M49.132 66.279c.003.556-5.091 1.039-11.38 1.079-6.288.039-11.389-.379-11.392-.935-.004-.557 5.091-1.04 11.379-1.079 6.289-.039 11.39.38 11.393.935"/>
      <path clip-path="url(#aB)" fill="#BABCC2" d="M49.054 66.28c.004.55-5.042 1.028-11.268 1.067-6.227.04-11.277-.375-11.281-.925-.003-.551 5.042-1.029 11.268-1.068 6.227-.04 11.278.375 11.281.926"/>
      <path clip-path="url(#aB)" fill="#B8BCC2" d="M48.977 66.28c.003.545-4.992 1.019-11.157 1.058-6.165.039-11.166-.371-11.169-.916-.004-.546 4.992-1.02 11.157-1.059 6.165-.038 11.166.372 11.169.917"/>
      <path clip-path="url(#aB)" fill="#B8BAC0" d="M48.898 66.281c.003.539-4.942 1.008-11.045 1.047s-11.054-.368-11.058-.907c-.003-.54 4.942-1.009 11.045-1.047 6.104-.039 11.056.367 11.058.907"/>
      <path clip-path="url(#aB)" fill="#B7B9BF" d="M48.82 66.281c.003.534-4.892.999-10.934 1.037-6.041.038-10.942-.364-10.945-.898-.004-.534 4.892-.998 10.933-1.037 6.043-.038 10.943.364 10.946.898"/>
      <path clip-path="url(#aB)" fill="#B5B8BE" d="M48.742 66.282c.003.528-4.842.988-10.822 1.025-5.98.038-10.83-.359-10.834-.889-.003-.529 4.842-.988 10.822-1.026 5.98-.037 10.831.361 10.834.89"/>
      <path clip-path="url(#aB)" fill="#B4B8BE" d="M48.665 66.282c.003.523-4.792.979-10.71 1.016-5.919.037-10.72-.356-10.723-.88-.004-.523 4.792-.978 10.71-1.016 5.918-.037 10.72.357 10.723.88"/>
      <path clip-path="url(#aB)" fill="#B3B6BC" d="M48.586 66.283c.003.518-4.742.968-10.599 1.005s-10.607-.353-10.61-.871c-.004-.518 4.741-.968 10.598-1.005s10.608.354 10.611.871"/>
      <path clip-path="url(#aB)" fill="#B4B5BB" d="M48.508 66.283c.003.513-4.692.958-10.487.995-5.795.036-10.496-.349-10.499-.862-.003-.512 4.692-.957 10.487-.994 5.795-.035 10.496.349 10.499.861"/>
      <path clip-path="url(#aB)" fill="#B1B4BA" d="M48.43 66.284c.003.507-4.642.947-10.375.983-5.734.038-10.385-.345-10.388-.853-.003-.507 4.642-.947 10.376-.984 5.734-.034 10.384.347 10.387.854"/>
      <path clip-path="url(#aB)" fill="#B0B3BA" d="M48.353 66.285c.003.501-4.592.937-10.264.973-5.672.036-10.273-.342-10.276-.843-.003-.502 4.592-.938 10.264-.974s10.273.342 10.276.844"/>
      <path clip-path="url(#aB)" fill="#AEB1B9" d="M48.274 66.285c.003.496-4.542.928-10.152.963-5.611.035-10.161-.338-10.164-.834-.004-.496 4.542-.928 10.152-.963s10.161.338 10.164.834"/>
      <path clip-path="url(#aB)" fill="#ADB0B7" d="M48.196 66.286c.003.49-4.492.917-10.041.952-5.548.035-10.049-.335-10.052-.825-.003-.491 4.492-.917 10.041-.952 5.549-.035 10.049.334 10.052.825"/>
      <path clip-path="url(#aB)" fill="#ADB0B7" d="M48.119 66.286c.003.485-4.443.907-9.93.941-5.487.035-9.937-.33-9.94-.815s4.442-.906 9.929-.941c5.487-.034 9.938.33 9.941.815"/>
      <path clip-path="url(#aB)" fill="#ABAFB6" d="M48.041 66.287c.003.479-4.393.896-9.818.931-5.425.034-9.826-.326-9.829-.807-.003-.479 4.393-.896 9.818-.931 5.425-.034 9.826.329 9.829.807"/>
      <path clip-path="url(#aB)" fill="#A9ADB3" d="M47.962 66.287c.003.475-4.343.887-9.706.921-5.364.033-9.714-.323-9.717-.798-.003-.474 4.342-.886 9.706-.92 5.363-.034 9.714.323 9.717.797"/>
      <path clip-path="url(#aB)" fill="#A9ACB3" d="M47.884 66.288c.003.469-4.292.876-9.595.91-5.301.033-9.602-.32-9.605-.789s4.293-.876 9.595-.909c5.302-.033 9.602.319 9.605.788"/>
      <path clip-path="url(#aB)" fill="#A7AAB1" d="M47.807 66.289c.003.463-4.243.865-9.483.898-5.241.033-9.491-.315-9.494-.779-.003-.463 4.243-.865 9.483-.898 5.241-.032 9.491.315 9.494.779"/>
      <path clip-path="url(#aB)" fill="#A6AAB1" d="M47.729 66.289c.003.458-4.193.854-9.372.889-5.178.033-9.379-.312-9.382-.77s4.193-.856 9.372-.89c5.177-.032 9.379.313 9.382.771"/>
      <path clip-path="url(#aB)" fill="#A4A9B0" d="M47.65 66.29c.003.452-4.143.846-9.26.878-5.117.032-9.267-.309-9.27-.761-.003-.453 4.143-.846 9.259-.878 5.119-.032 9.268.308 9.271.761"/>
      <path clip-path="url(#aB)" fill="#A3A6AE" d="M47.573 66.29c.002.447-4.093.836-9.149.867-5.055.032-9.156-.304-9.159-.751-.002-.447 4.094-.836 9.149-.867 5.055-.032 9.156.305 9.159.751"/>
      <path clip-path="url(#aB)" fill="#A1A5AD" d="M47.495 66.291c.002.441-4.043.825-9.037.856-4.994.032-9.044-.301-9.047-.742s4.043-.825 9.037-.856c4.994-.032 9.044.301 9.047.742"/>
      <path clip-path="url(#aB)" fill="#A0A4AB" d="M47.417 66.291c.003.438-3.993.815-8.925.847-4.932.031-8.933-.297-8.936-.733-.002-.437 3.994-.815 8.926-.846 4.932-.032 8.932.296 8.935.732"/>
      <path clip-path="url(#aB)" fill="#A0A3AA" d="M47.338 66.292c.003.431-3.943.805-8.813.836-4.871.03-8.821-.294-8.824-.725-.003-.431 3.943-.805 8.814-.835 4.87-.031 8.821.293 8.823.724"/>
      <path clip-path="url(#aB)" fill="#9DA1A9" d="M47.261 66.293c.002.425-3.894.794-8.702.824-4.809.03-8.71-.289-8.713-.715-.002-.425 3.894-.794 8.703-.825 4.809-.03 8.709.29 8.712.716"/>
      <path clip-path="url(#aB)" fill="#9CA1A9" d="M47.183 66.293c.002.42-3.844.784-8.591.814s-8.597-.286-8.6-.706c-.002-.419 3.843-.784 8.591-.814 4.747-.029 8.597.286 8.6.706"/>
      <path clip-path="url(#aB)" fill="#9B9FA7" d="M47.104 66.294c.003.414-3.793.774-8.479.804s-8.486-.282-8.488-.696c-.003-.415 3.793-.774 8.479-.805 4.685-.03 8.487.282 8.488.697"/>
      <path clip-path="url(#aB)" fill="#999DA5" d="M47.026 66.294c.003.409-3.744.765-8.367.794-4.624.029-8.375-.279-8.377-.688-.003-.409 3.744-.765 8.368-.793 4.623-.03 8.374.279 8.376.687"/>
      <path clip-path="url(#aB)" fill="#999DA5" d="M46.949 66.295c.002.403-3.694.754-8.256.782-4.562.03-8.263-.274-8.265-.678-.003-.403 3.693-.754 8.256-.783 4.562-.028 8.263.276 8.265.679"/>
      <path clip-path="url(#aB)" fill="#979CA4" d="M46.871 66.295c.002.398-3.644.744-8.145.772-4.5.028-8.15-.271-8.153-.668-.002-.399 3.644-.745 8.145-.773 4.5-.028 8.151.272 8.153.669"/>
      <path clip-path="url(#aB)" fill="#969AA3" d="M46.792 66.296c.002.393-3.594.733-8.033.762s-8.039-.268-8.042-.659c-.002-.394 3.595-.734 8.033-.763 4.439-.028 8.041.267 8.042.66"/>
      <path clip-path="url(#aB)" fill="#969AA2" d="M46.715 66.297c.002.387-3.544.723-7.921.751-4.378.027-7.928-.264-7.931-.651-.002-.387 3.544-.724 7.922-.751 4.377-.028 7.928.263 7.93.651"/>
      <path clip-path="url(#aB)" fill="#9399A1" d="M46.637 66.297c.002.382-3.494.713-7.81.74-4.315.027-7.816-.261-7.818-.642-.002-.382 3.494-.713 7.81-.74 4.315-.027 7.816.26 7.818.642"/>
      <path clip-path="url(#aB)" fill="#91959E" d="M46.559 66.298c.002.376-3.444.702-7.698.729-4.254.028-7.704-.255-7.707-.632-.002-.376 3.445-.702 7.698-.729 4.253-.027 7.705.255 7.707.632"/>
      <path clip-path="url(#aB)" fill="#8F949D" d="M46.48 66.298c.002.371-3.394.693-7.586.72-4.193.026-7.593-.253-7.596-.623-.002-.371 3.395-.693 7.587-.72 4.193-.027 7.594.253 7.595.623"/>
      <path clip-path="url(#aB)" fill="#8D929B" d="M46.403 66.299c.002.365-3.345.683-7.475.709-4.131.025-7.481-.249-7.483-.614-.003-.365 3.344-.683 7.475-.709 4.13-.027 7.481.249 7.483.614"/>
      <path clip-path="url(#aB)" fill="#8C919B" d="M46.325 66.299c.002.36-3.294.673-7.363.698-4.07.026-7.37-.245-7.372-.604-.002-.36 3.295-.673 7.363-.697 4.069-.027 7.37.243 7.372.603"/>
      <path clip-path="url(#aB)" fill="#8B9099" d="M46.247 66.3c.002.354-3.245.662-7.252.688s-7.257-.241-7.26-.596c-.002-.354 3.245-.662 7.252-.688 4.008-.025 7.258.242 7.26.596"/>
      <path clip-path="url(#aB)" fill="#8A8E98" d="M46.168 66.301c.002.349-3.194.651-7.14.677-3.946.024-7.146-.238-7.148-.587-.003-.349 3.194-.651 7.14-.677 3.946-.026 7.147.237 7.148.587"/>
      <path clip-path="url(#aB)" fill="#888D97" d="M46.091 66.301c.002.344-3.145.642-7.029.666-3.884.025-7.034-.233-7.036-.577s3.144-.642 7.028-.666c3.884-.025 7.035.233 7.037.577"/>
      <path clip-path="url(#aB)" fill="#868B95" d="M46.013 66.302c.002.338-3.095.631-6.917.655-3.823.024-6.923-.23-6.925-.568-.002-.338 3.095-.632 6.917-.655 3.822-.025 6.923.23 6.925.568"/>
      <path clip-path="url(#aB)" fill="#868A93" d="M45.935 66.302c.002.333-3.045.622-6.806.646-3.76.022-6.811-.228-6.813-.561-.002-.332 3.045-.621 6.806-.645 3.76-.023 6.811.228 6.813.56"/>
      <path clip-path="url(#aB)" fill="#838893" d="M45.857 66.303c.002.327-2.995.611-6.694.635-3.699.023-6.7-.224-6.702-.55-.002-.327 2.995-.611 6.694-.635 3.7-.024 6.7.223 6.702.55"/>
      <path clip-path="url(#aB)" fill="#828891" d="M45.779 66.303c.002.322-2.945.602-6.583.624-3.637.023-6.587-.219-6.589-.54-.002-.322 2.944-.602 6.582-.624 3.637-.024 6.588.218 6.59.54"/>
      <path clip-path="url(#aB)" fill="#818690" d="M45.701 66.304c.002.316-2.895.591-6.471.613-3.575.022-6.476-.215-6.478-.531s2.895-.591 6.471-.613c3.576-.024 6.476.214 6.478.531"/>
      <path clip-path="url(#aB)" fill="#7F848E" d="M45.623 66.304c.002.312-2.845.581-6.359.604-3.514.021-6.365-.213-6.367-.523-.002-.31 2.846-.581 6.36-.603 3.514-.022 6.364.211 6.366.522"/>
      <path clip-path="url(#aB)" fill="#7F828C" d="M45.545 66.305c.002.306-2.795.57-6.248.593-3.452.021-6.253-.208-6.254-.514-.002-.306 2.794-.57 6.247-.593 3.453-.021 6.253.208 6.255.514"/>
      <path clip-path="url(#aB)" fill="#7D818B" d="M45.467 66.306c.002.3-2.746.56-6.136.581-3.391.021-6.141-.204-6.143-.504-.002-.3 2.745-.561 6.136-.582s6.141.205 6.143.505"/>
      <path clip-path="url(#aB)" fill="#7C808B" d="M45.389 66.306c.002.295-2.695.551-6.024.571-3.33.021-6.03-.2-6.032-.495-.002-.294 2.696-.55 6.025-.571 3.329-.021 6.029.201 6.031.495"/>
      <path clip-path="url(#aB)" fill="#787F89" d="M45.311 66.307c.002.289-2.646.54-5.913.561s-5.918-.197-5.92-.486c-.001-.288 2.646-.54 5.914-.561 3.267-.021 5.918.197 5.919.486"/>
      <path clip-path="url(#aB)" fill="#787D87" d="M45.233 66.307c.001.284-2.596.53-5.802.551-3.205.02-5.806-.193-5.807-.478-.002-.283 2.595-.529 5.801-.55s5.806.193 5.808.477"/>
      <path clip-path="url(#aB)" fill="#777B85" d="M45.155 66.308c.002.278-2.546.521-5.69.539-3.144.021-5.694-.189-5.696-.467-.002-.278 2.546-.52 5.69-.54 3.144-.02 5.694.189 5.696.468"/>
      <path clip-path="url(#aB)" fill="#747A84" d="M45.077 66.308c.002.273-2.496.51-5.578.529-3.083.02-5.583-.186-5.585-.458s2.496-.509 5.579-.529c3.082-.02 5.583.186 5.584.458"/>
      <path clip-path="url(#aB)" fill="#747982" d="M44.999 66.309c.001.268-2.446.499-5.467.519-3.021.019-5.471-.183-5.473-.449-.001-.268 2.446-.499 5.467-.519 3.021-.019 5.471.181 5.473.449"/>
      <path clip-path="url(#aB)" fill="#717882" d="M44.921 66.31c.001.262-2.396.488-5.355.507-2.959.02-5.36-.178-5.361-.439-.002-.262 2.396-.489 5.355-.508s5.359.178 5.361.44"/>
      <path clip-path="url(#aB)" fill="#6F7580" d="M44.843 66.31c.001.257-2.346.479-5.244.497-2.897.019-5.248-.175-5.249-.431-.002-.256 2.346-.479 5.243-.497 2.898-.019 5.249.175 5.25.431"/>
      <path clip-path="url(#aB)" fill="#6E7480" d="M44.765 66.311c.002.251-2.296.469-5.132.486s-5.136-.171-5.138-.422c-.001-.251 2.296-.469 5.132-.486s5.137.171 5.138.422"/>
      <path clip-path="url(#aB)" fill="#6C737E" d="M44.687 66.311c.001.246-2.247.459-5.021.477s-5.024-.167-5.026-.413c-.001-.245 2.246-.458 5.021-.476 2.774-.018 5.024.166 5.026.412"/>
      <path clip-path="url(#aB)" fill="#6B717C" d="M44.609 66.312c.001.239-2.196.448-4.909.465-2.713.018-4.913-.163-4.914-.402-.002-.24 2.196-.449 4.908-.466 2.713-.018 4.914.162 4.915.403"/>
      <path clip-path="url(#aB)" fill="#696E7A" d="M44.531 66.312c.001.234-2.146.438-4.797.455-2.651.017-4.802-.159-4.803-.393-.002-.235 2.146-.439 4.797-.456 2.651-.017 4.802.159 4.803.394"/>
      <path clip-path="url(#aB)" fill="#676E79" d="M44.453 66.312c.001.229-2.096.428-4.686.444-2.589.017-4.689-.156-4.69-.385-.002-.229 2.096-.428 4.685-.444s4.69.157 4.691.385"/>
      <path clip-path="url(#aB)" fill="#676C77" d="M44.375 66.313c.001.223-2.047.417-4.574.434-2.528.016-4.578-.152-4.58-.376-.001-.224 2.047-.418 4.574-.434 2.528-.016 4.579.153 4.58.376"/>
      <path clip-path="url(#aB)" fill="#646977" d="M44.297 66.313c.001.218-1.997.407-4.463.423-2.466.015-4.466-.148-4.467-.366-.002-.218 1.996-.407 4.462-.423 2.467-.015 4.467.149 4.468.366"/>
      <path clip-path="url(#aB)" fill="#626975" d="M44.219 66.314c.001.212-1.947.397-4.351.412-2.404.016-4.355-.145-4.356-.357s1.947-.397 4.351-.412c2.404-.016 4.355.145 4.356.357"/>
      <path clip-path="url(#aB)" fill="#606773" d="M44.141 66.314c.001.207-1.896.388-4.239.402-2.343.015-4.243-.142-4.244-.349-.002-.207 1.896-.387 4.239-.401 2.343-.015 4.243.141 4.244.348"/>
      <path clip-path="url(#aB)" fill="#5E6471" d="M44.063 66.315c.001.201-1.847.377-4.128.392-2.281.014-4.131-.138-4.133-.34-.001-.201 1.847-.377 4.128-.391 2.281-.014 4.132.137 4.133.339"/>
      <path clip-path="url(#aB)" fill="#5D6370" d="M43.985 66.315c.001.196-1.797.367-4.016.381-2.22.016-4.02-.134-4.021-.33-.002-.196 1.797-.365 4.016-.38 2.22-.014 4.02.133 4.021.329"/>
      <path clip-path="url(#aB)" fill="#5A626D" d="M43.907 66.316c.001.19-1.747.356-3.905.37-2.157.014-3.907-.13-3.909-.32-.001-.191 1.747-.357 3.905-.371 2.158-.014 3.908.131 3.909.321"/>
      <path clip-path="url(#aB)" fill="#595F6C" d="M43.829 66.317c.001.185-1.697.346-3.793.359-2.097.013-3.797-.127-3.798-.312-.001-.186 1.697-.347 3.793-.36 2.096-.012 3.797.128 3.798.313"/>
      <path clip-path="url(#aB)" fill="#565E6B" d="M43.751 66.317c.001.18-1.647.336-3.682.35-2.034.013-3.684-.123-3.686-.303-.001-.18 1.648-.336 3.682-.35 2.035-.012 3.685.124 3.686.303"/>
      <path clip-path="url(#aB)" fill="#555C6A" d="M43.673 66.318c.001.174-1.597.325-3.57.338-1.973.013-3.573-.118-3.574-.293-.002-.175 1.597-.326 3.57-.339 1.973-.011 3.573.12 3.574.294"/>
      <path clip-path="url(#aB)" fill="#535A68" d="M43.595 66.318c.001.169-1.548.316-3.459.328s-3.461-.115-3.462-.284 1.547-.314 3.458-.328c1.911-.012 3.462.115 3.463.284"/>
      <path clip-path="url(#aB)" fill="#505966" d="M43.517 66.319c.001.163-1.498.306-3.347.317-1.85.012-3.35-.111-3.351-.275-.001-.163 1.498-.306 3.347-.317 1.85-.012 3.35.111 3.351.275"/>
      <path clip-path="url(#aB)" fill="#4F5665" d="M43.439 66.319c.001.158-1.448.296-3.235.307-1.788.012-3.239-.107-3.24-.266s1.448-.295 3.236-.307c1.788-.01 3.238.108 3.239.266"/>
      <path clip-path="url(#aB)" fill="#4C5663" d="M43.361 66.32c.001.152-1.397.285-3.124.296-1.726.011-3.126-.104-3.127-.257-.001-.152 1.397-.285 3.124-.296 1.726-.01 3.126.105 3.127.257"/>
      <path clip-path="url(#aB)" fill="#4C5261" d="M43.283 66.32c.001.147-1.348.275-3.012.286-1.665.011-3.015-.1-3.016-.248-.001-.146 1.348-.274 3.012-.285 1.665-.011 3.016.102 3.016.247"/>
      <path clip-path="url(#aB)" fill="#4A515E" d="M43.205 66.321c.001.142-1.298.265-2.901.275-1.603.01-2.903-.097-2.904-.238-.001-.143 1.298-.266 2.901-.275 1.603-.01 2.903.097 2.904.238"/>
      <path clip-path="url(#aB)" fill="#474E5E" d="M43.127 66.322c.001.136-1.248.254-2.789.264-1.542.01-2.792-.093-2.793-.229-.001-.137 1.249-.255 2.79-.265s2.791.094 2.792.23"/>
      <path clip-path="url(#aB)" fill="#464E5C" d="M43.049 66.322c.001.131-1.198.245-2.677.254-1.48.01-2.68-.089-2.681-.22s1.198-.244 2.677-.254c1.48-.009 2.681.089 2.681.22"/>
      <path clip-path="url(#aB)" fill="#444C5A" d="M42.971 66.323c0 .125-1.148.234-2.566.243s-2.568-.086-2.569-.211 1.148-.234 2.566-.243 2.568.085 2.569.211"/>
      <path clip-path="url(#aB)" fill="#424958" d="M42.893 66.323c0 .12-1.098.225-2.455.233-1.356.008-2.456-.082-2.457-.202s1.099-.224 2.455-.232 2.456.082 2.457.201"/>
      <path clip-path="url(#aB)" fill="#3F4756" d="M42.815 66.324c.001.114-1.048.214-2.343.222-1.295.009-2.344-.078-2.345-.192s1.048-.214 2.342-.222c1.295-.009 2.346.078 2.346.192"/>
      <path clip-path="url(#aB)" fill="#3E4655" d="M42.737 66.324c.001.109-.998.204-2.231.212s-2.233-.074-2.234-.184c-.001-.108.998-.203 2.232-.211 1.233-.007 2.233.075 2.233.183"/>
      <path clip-path="url(#aB)" fill="#3C4453" d="M42.659 66.325c0 .104-.949.193-2.12.201-1.172.007-2.121-.07-2.122-.175-.001-.104.949-.193 2.12-.2 1.171-.007 2.121.071 2.122.174"/>
      <path clip-path="url(#aB)" fill="#394151" d="M42.581 66.326c0 .098-.898.183-2.008.19-1.11.007-2.01-.067-2.011-.165-.001-.099.899-.184 2.009-.19 1.109-.008 2.01.067 2.01.165"/>
      <path clip-path="url(#aB)" fill="#37404F" d="M42.503 66.326c0 .093-.849.174-1.896.18-1.048.007-1.899-.062-1.899-.155-.001-.093.848-.174 1.897-.18 1.047-.007 1.898.062 1.898.155"/>
      <path clip-path="url(#aB)" fill="#343D4D" d="M42.425 66.327c0 .087-.799.163-1.785.169-.986.006-1.787-.06-1.787-.146-.001-.087.798-.163 1.785-.169.986-.007 1.786.058 1.787.146"/>
      <path clip-path="url(#aB)" fill="#323C4C" d="M42.347 66.327c0 .082-.749.153-1.674.159-.924.006-1.675-.056-1.675-.138-.001-.082.749-.153 1.674-.159.925-.005 1.675.057 1.675.138"/>
      <path clip-path="url(#aB)" fill="#30394A" d="M42.269 66.328c0 .076-.699.143-1.562.148-.863.005-1.563-.053-1.563-.128-.001-.077.698-.144 1.562-.149.862-.005 1.563.053 1.563.129"/>
      <path clip-path="url(#aB)" fill="#2E3747" d="M42.191 66.328c0 .071-.649.133-1.45.138-.801.005-1.452-.048-1.452-.119-.001-.07.649-.132 1.45-.138.802-.005 1.452.049 1.452.119"/>
      <path clip-path="url(#aB)" fill="#2C3645" d="M42.113 66.329c0 .065-.599.122-1.339.127-.74.005-1.34-.045-1.34-.11-.001-.065.598-.121 1.339-.127.739-.004 1.34.046 1.34.11"/>
      <path clip-path="url(#aB)" fill="#2A3343" d="M42.035 66.33c0 .06-.549.111-1.228.116-.677.004-1.228-.041-1.228-.102-.001-.06.549-.111 1.227-.116.679-.003 1.229.042 1.229.102"/>
      <path clip-path="url(#aB)" fill="#283141" d="M41.957 66.33c0 .055-.499.102-1.116.104-.616.005-1.116-.036-1.116-.09-.001-.055.499-.103 1.115-.106.617-.004 1.117.037 1.117.092"/>
      <path clip-path="url(#aB)" fill="#262F40" d="M41.879 66.331c0 .049-.449.092-1.004.095-.555.004-1.005-.032-1.005-.082s.449-.092 1.004-.096c.555-.003 1.005.033 1.005.083"/>
      <path clip-path="url(#aB)" fill="#232E3F" d="M41.801 66.331c0 .044-.399.082-.893.085-.493.003-.893-.03-.893-.073-.001-.044.399-.082.892-.085.494-.003.894.03.894.073"/>
      <path clip-path="url(#aB)" fill="#212B3D" d="M41.723 66.332c0 .038-.35.071-.781.074-.431.002-.781-.026-.782-.064 0-.038.35-.071.781-.074.432-.003.782.026.782.064"/>
      <path clip-path="url(#aB)" fill="#1F293A" d="M41.645 66.332c0 .033-.299.062-.669.063-.37.003-.67-.021-.67-.055-.001-.032.299-.062.669-.063s.67.023.67.055"/>
      <path clip-path="url(#aB)" fill="#1C2738" d="M41.567 66.333c0 .027-.25.051-.558.053s-.558-.019-.559-.046c0-.027.25-.051.558-.053.309-.002.559.019.559.046"/>
      <path clip-path="url(#aB)" fill="#1B2436" d="M41.489 66.334c0 .021-.2.04-.446.042-.247.001-.447-.015-.447-.037 0-.021.2-.04.446-.042.247-.002.447.015.447.037"/>
      <path clip-path="url(#aB)" fill="#172234" d="M41.411 66.334c0 .017-.15.03-.334.032-.186.001-.335-.012-.336-.028 0-.016.15-.03.335-.031s.335.01.335.027"/>
      <path clip-path="url(#aB)" fill="#151F32" d="M41.333 66.335c0 .011-.1.021-.223.021s-.223-.008-.223-.019c0-.012.099-.021.223-.021.123-.001.223.007.223.019"/>
      <path clip-path="url(#aB)" fill="#141D30" d="M41.255 66.335c0 .006-.05.011-.112.011a.36.36 0 0 1-.112-.009c0-.006.051-.011.112-.011a.319.319 0 0 1 .112.009"/>
    </g>
  </g>
</svg>
