<svg xmlns="http://www.w3.org/2000/svg" width="72" height="72">
  <path fill="#E5E2DE" d="M7.285 22.193V47.02a7.214 7.214 0 0 0 3.607 6.248l21.5 12.413a7.214 7.214 0 0 0 7.215 0l21.5-12.413a7.214 7.214 0 0 0 3.607-6.248V22.193a7.214 7.214 0 0 0-3.607-6.248l-21.5-12.413a7.214 7.214 0 0 0-7.215 0l-21.5 12.413a7.214 7.214 0 0 0-3.607 6.248"/>
  <path fill="none" stroke="#A12536" stroke-width="2" stroke-miterlimit="10" d="M7.285 22.193V47.02a7.214 7.214 0 0 0 3.607 6.248l21.5 12.413a7.214 7.214 0 0 0 7.215 0l21.5-12.413a7.214 7.214 0 0 0 3.607-6.248V22.193a7.214 7.214 0 0 0-3.607-6.248l-21.5-12.413a7.214 7.214 0 0 0-7.215 0l-21.5 12.413a7.214 7.214 0 0 0-3.607 6.248z"/>
  <path fill="#A12536" d="M36 11.968c-11.999 0-21.727 9.727-21.727 21.726S24 55.42 36 55.42c11.999 0 21.725-9.727 21.725-21.726S47.998 11.968 36 11.968m20.045 21.726a20.12 20.12 0 0 1-.287 3.397c-2.164-2.49-4.418-4.602-6.736-6.313a2.576 2.576 0 0 0-2.371-3.153 26.106 26.106 0 0 0-1.363-4.444 29.362 29.362 0 0 0-.447-1.041 2.572 2.572 0 0 0 1.016-2.404 48.09 48.09 0 0 1 3.383-1.094 20 20 0 0 1 6.805 15.052M36 53.74a19.98 19.98 0 0 1-7.809-1.578 30.405 30.405 0 0 1-.938-6.037 29.846 29.846 0 0 1 .036-3.886h.003c.363 0 .709-.077 1.023-.215a26.963 26.963 0 0 0 4.864 4.032 33.34 33.34 0 0 0 5.014 2.668 2.551 2.551 0 0 0 .535 1.899 50.31 50.31 0 0 1-2.716 3.117H36zM25.274 27.985c2.134-.724 4.609-1.28 7.306-1.373a24.32 24.32 0 0 0-3.514 4.843 24.786 24.786 0 0 0-2.259 5.693 2.581 2.581 0 0 0-.487.145l-.004-.005c-1.284-2.108-2.128-4.282-2.672-6.362a2.578 2.578 0 0 0 1.686-2.411c0-.182-.02-.359-.056-.53m14.49 23.423c.303.125.633.195.979.195.9 0 1.697-.471 2.156-1.179a50.1 50.1 0 0 0 2.891.766 19.9 19.9 0 0 1-7.928 2.464 49.19 49.19 0 0 0 1.902-2.246m1.808-4.804a2.567 2.567 0 0 0-2.9.913c-3.76-1.629-6.877-3.733-9.333-6.302.326-.43.521-.966.521-1.545a2.578 2.578 0 0 0-1.726-2.425 23.348 23.348 0 0 1 2.079-5.174 23.221 23.221 0 0 1 4.174-5.449c.249.011.5.026.752.046 3.082.244 6.083 1.112 8.99 2.594a2.503 2.503 0 0 0-.176.928 2.58 2.58 0 0 0 1.916 2.485c-.01 4.656-1.451 9.316-4.297 13.929m1.739-23.956c.105 0 .211-.007.312-.02a25.333 25.333 0 0 1 1.75 5.267 2.545 2.545 0 0 0-.469.304c-2.965-1.539-6.046-2.474-9.183-2.785 1.641-1.386 3.511-2.621 5.609-3.705a2.56 2.56 0 0 0 1.981.939m-3.928-8.715a19.922 19.922 0 0 1 8.629 3.712 48.25 48.25 0 0 0-2.654.888 2.566 2.566 0 0 0-2.047-1.023c-.34 0-.666.068-.965.19a32.813 32.813 0 0 0-2.963-3.767m-2.043-.241a31.038 31.038 0 0 1 3.962 4.79 2.557 2.557 0 0 0-.52 2.048 32.618 32.618 0 0 0-4.093 2.484 27.81 27.81 0 0 0-2.801 2.288 25.59 25.59 0 0 0-6.895.806c-.774.198-1.548.432-2.318.7a2.567 2.567 0 0 0-1.849-.86 29.947 29.947 0 0 1-.078-2.573c.025-2.141.271-3.94.488-5.141a19.964 19.964 0 0 1 12.762-4.586c.452 0 .899.015 1.342.044m-15.638 5.952a33.072 33.072 0 0 0-.254 3.667c-.014.994.019 1.977.095 2.945a2.575 2.575 0 0 0-1.337 2.518 32.507 32.507 0 0 0-4.121 2.616 19.974 19.974 0 0 1 5.617-11.746m-5.748 14.05c0-.184.003-.366.008-.549a30.249 30.249 0 0 1 4.71-3.142c.386.539.974.925 1.651 1.042a25.091 25.091 0 0 0 2.954 7.037 2.55 2.55 0 0 0-.554 1.588c0 .945.517 1.774 1.282 2.221a31.538 31.538 0 0 0-.051 4.354c.124 2.164.44 3.963.716 5.196-6.372-3.357-10.716-10.045-10.716-17.747m31.413 16.512a50.194 50.194 0 0 1-4.062-1.019 2.552 2.552 0 0 0-.65-1.862 33.067 33.067 0 0 0 2.51-4.883c1.326-3.234 1.998-6.513 2.008-9.767.477-.126.9-.386 1.229-.738 2.416 1.802 4.758 4.057 7.016 6.759a20.092 20.092 0 0 1-8.051 11.51"/>
</svg>
